{
  "asset": {
    "version": "2.0",
    "generator": "Sketchup glTF Exporter v1.2.6 by Centaur"
  },
  "scene": 0,
  "scenes": [
    {
      "nodes": [
        0
      ]
    }
  ],
  "samplers": [
    {
    }
  ],
  "nodes": [
    {
      "name": "root",
      "children": [
        1,
        2
      ]
    },
    {
      "name": "Helen"
    },
    {
      "children": [
        3
      ]
    },
    {
      "children": [
        4,
        17,
        19
      ]
    },
    {
      "children": [
        5,
        16
      ]
    },
    {
      "children": [
        6,
        7,
        8,
        11,
        12,
        13,
        14,
        15
      ],
      "mesh": 9
    },
    {
      "mesh": 0
    },
    {
      "mesh": 1
    },
    {
      "children": [
        9
      ],
      "mesh": 3
    },
    {
      "children": [
        10
      ]
    },
    {
      "mesh": 2
    },
    {
      "mesh": 4
    },
    {
      "mesh": 5
    },
    {
      "mesh": 6
    },
    {
      "mesh": 7
    },
    {
      "mesh": 8
    },
    {
      "mesh": 10
    },
    {
      "children": [
        18
      ],
      "mesh": 12
    },
    {
      "mesh": 11
    },
    {
      "mesh": 13
    }
  ],
  "materials": [
    {
      "pbrMetallicRoughness": {
        "baseColorFactor": [
          0.2758,
          0.2758,
          0.2758,
          1.0
        ],
        "metallicFactor": 0.1,
        "roughnessFactor": 0.9
      },
      "name": "顏色 M04"
    },
    {
      "pbrMetallicRoughness": {
        "baseColorFactor": [
          1.0,
          1.0,
          1.0,
          1.0
        ],
        "metallicFactor": 0.1,
        "roughnessFactor": 0.9
      },
      "name": "顏色 M00",
      "doubleSided": true
    },
    {
      "pbrMetallicRoughness": {
        "baseColorFactor": [
          0.4098,
          0.4098,
          0.4098,
          1.0
        ],
        "metallicFactor": 0.1,
        "roughnessFactor": 0.9
      },
      "name": "顏色 M03"
    },
    {
      "pbrMetallicRoughness": {
        "baseColorFactor": [
          0.6121,
          1.0,
          1.0,
          0.54
        ],
        "metallicFactor": 0.1,
        "roughnessFactor": 0.9
      },
      "name": "顏色 H01",
      "doubleSided": true,
      "alphaMode": "BLEND"
    },
    {
      "pbrMetallicRoughness": {
        "baseColorFactor": [
          0.2176,
          0.2176,
          0.2176,
          1.0
        ],
        "metallicFactor": 0.1,
        "roughnessFactor": 0.9
      },
      "name": "default material",
      "doubleSided": true
    },
    {
      "pbrMetallicRoughness": {
        "baseColorFactor": [
          0.1062,
          0.0619,
          0.0415,
          1.0
        ],
        "metallicFactor": 0.1,
        "roughnessFactor": 0.9
      },
      "name": "Helen_Hair",
      "doubleSided": true
    },
    {
      "pbrMetallicRoughness": {
        "baseColorFactor": [
          0.5732,
          0.5732,
          0.5732,
          1.0
        ],
        "metallicFactor": 0.1,
        "roughnessFactor": 0.9
      },
      "name": "顏色 M02"
    },
    {
      "pbrMetallicRoughness": {
        "baseColorTexture": {
          "index": 0
        },
        "metallicFactor": 0.1,
        "roughnessFactor": 0.9
      },
      "name": "石灰岩大磁磚",
      "doubleSided": true
    }
  ],
  "images": [
    {
      "bufferView": 0,
      "mimeType": "image/jpeg"
    }
  ],
  "textures": [
    {
      "source": 0,
      "sampler": 0
    }
  ],
  "meshes": [
    {
      "primitives": [
        {
          "attributes": {
            "POSITION": 0,
            "NORMAL": 1
          },
          "indices": 5,
          "mode": 4,
          "material": 1
        },
        {
          "attributes": {
            "POSITION": 0,
            "NORMAL": 1
          },
          "indices": 6,
          "mode": 4,
          "material": 2
        }
      ]
    },
    {
      "primitives": [
        {
          "attributes": {
            "POSITION": 0,
            "NORMAL": 1
          },
          "indices": 7,
          "mode": 4,
          "material": 3
        }
      ]
    },
    {
      "primitives": [
        {
          "attributes": {
            "POSITION": 0,
            "NORMAL": 1
          },
          "indices": 8,
          "mode": 4,
          "material": 1
        }
      ]
    },
    {
      "primitives": [
        {
          "attributes": {
            "POSITION": 0,
            "NORMAL": 1
          },
          "indices": 9,
          "mode": 4,
          "material": 1
        }
      ]
    },
    {
      "primitives": [
        {
          "attributes": {
            "POSITION": 0,
            "NORMAL": 1
          },
          "indices": 10,
          "mode": 4,
          "material": 3
        }
      ]
    },
    {
      "primitives": [
        {
          "attributes": {
            "POSITION": 0,
            "NORMAL": 1
          },
          "indices": 11,
          "mode": 4,
          "material": 3
        }
      ]
    },
    {
      "primitives": [
        {
          "attributes": {
            "POSITION": 0,
            "NORMAL": 1
          },
          "indices": 12,
          "mode": 4,
          "material": 1
        }
      ]
    },
    {
      "primitives": [
        {
          "attributes": {
            "POSITION": 0,
            "NORMAL": 1
          },
          "indices": 13,
          "mode": 4,
          "material": 3
        }
      ]
    },
    {
      "primitives": [
        {
          "attributes": {
            "POSITION": 0,
            "NORMAL": 1
          },
          "indices": 14,
          "mode": 4,
          "material": 3
        }
      ]
    },
    {
      "primitives": [
        {
          "attributes": {
            "POSITION": 0,
            "NORMAL": 1
          },
          "indices": 15,
          "mode": 4,
          "material": 0
        },
        {
          "attributes": {
            "POSITION": 0,
            "NORMAL": 1
          },
          "indices": 16,
          "mode": 4,
          "material": 2
        },
        {
          "attributes": {
            "POSITION": 0,
            "NORMAL": 1
          },
          "indices": 17,
          "mode": 4,
          "material": 3
        }
      ]
    },
    {
      "primitives": [
        {
          "attributes": {
            "POSITION": 0,
            "NORMAL": 1
          },
          "indices": 18,
          "mode": 4,
          "material": 4
        }
      ]
    },
    {
      "primitives": [
        {
          "attributes": {
            "POSITION": 0,
            "NORMAL": 1
          },
          "indices": 19,
          "mode": 4,
          "material": 5
        }
      ]
    },
    {
      "primitives": [
        {
          "attributes": {
            "POSITION": 0,
            "NORMAL": 1
          },
          "indices": 20,
          "mode": 4,
          "material": 5
        },
        {
          "attributes": {
            "POSITION": 0,
            "NORMAL": 1
          },
          "indices": 21,
          "mode": 4,
          "material": 6
        }
      ]
    },
    {
      "primitives": [
        {
          "attributes": {
            "POSITION": 2,
            "NORMAL": 3,
            "TEXCOORD_0": 4
          },
          "indices": 22,
          "mode": 4,
          "material": 7
        }
      ]
    }
  ],
  "accessors": [
    {
      "bufferView": 1,
      "componentType": 5126,
      "count": 2306,
      "type": "VEC3",
      "min": [
        -9.810571914245465,
        -0.5944816251909747,
        -13.933839518501843
      ],
      "max": [
        13.142394835017672,
        3.1555183748094997,
        17.334517930167642
      ]
    },
    {
      "bufferView": 2,
      "componentType": 5126,
      "count": 2306,
      "type": "VEC3",
      "min": [
        -0.9159860923510433,
        -1.0,
        -0.9159860923505785
      ],
      "max": [
        0.9159860923510434,
        1.0,
        0.9333722873132314
      ]
    },
    {
      "bufferView": 3,
      "componentType": 5126,
      "count": 316,
      "type": "VEC3",
      "min": [
        -9.810571914245473,
        3.1555183748089726,
        -13.904527963546624
      ],
      "max": [
        12.249412416727484,
        5.655518374809422,
        15.295786495320158
      ]
    },
    {
      "bufferView": 4,
      "componentType": 5126,
      "count": 316,
      "type": "VEC3",
      "min": [
        -0.9159860923505734,
        -1.3696302185614179e-14,
        -0.9159860923505734
      ],
      "max": [
        0.9159860923505732,
        1.0,
        0.9159860923505734
      ]
    },
    {
      "bufferView": 5,
      "componentType": 5126,
      "count": 316,
      "type": "VEC2",
      "min": [
        -77.86479869770749,
        -39.79535643952711
      ],
      "max": [
        80.48947061371798,
        4.561598941050347
      ]
    },
    {
      "bufferView": 6,
      "componentType": 5123,
      "count": 1536,
      "type": "SCALAR"
    },
    {
      "bufferView": 6,
      "componentType": 5123,
      "count": 129,
      "type": "SCALAR",
      "byteOffset": 3072
    },
    {
      "bufferView": 6,
      "componentType": 5123,
      "count": 6,
      "type": "SCALAR",
      "byteOffset": 3330
    },
    {
      "bufferView": 6,
      "componentType": 5123,
      "count": 84,
      "type": "SCALAR",
      "byteOffset": 3342
    },
    {
      "bufferView": 6,
      "componentType": 5123,
      "count": 72,
      "type": "SCALAR",
      "byteOffset": 3510
    },
    {
      "bufferView": 6,
      "componentType": 5123,
      "count": 30,
      "type": "SCALAR",
      "byteOffset": 3654
    },
    {
      "bufferView": 6,
      "componentType": 5123,
      "count": 30,
      "type": "SCALAR",
      "byteOffset": 3714
    },
    {
      "bufferView": 6,
      "componentType": 5123,
      "count": 156,
      "type": "SCALAR",
      "byteOffset": 3774
    },
    {
      "bufferView": 6,
      "componentType": 5123,
      "count": 18,
      "type": "SCALAR",
      "byteOffset": 4086
    },
    {
      "bufferView": 6,
      "componentType": 5123,
      "count": 18,
      "type": "SCALAR",
      "byteOffset": 4122
    },
    {
      "bufferView": 6,
      "componentType": 5123,
      "count": 6,
      "type": "SCALAR",
      "byteOffset": 4158
    },
    {
      "bufferView": 6,
      "componentType": 5123,
      "count": 777,
      "type": "SCALAR",
      "byteOffset": 4170
    },
    {
      "bufferView": 6,
      "componentType": 5123,
      "count": 6,
      "type": "SCALAR",
      "byteOffset": 5724
    },
    {
      "bufferView": 6,
      "componentType": 5123,
      "count": 36,
      "type": "SCALAR",
      "byteOffset": 5736
    },
    {
      "bufferView": 6,
      "componentType": 5123,
      "count": 294,
      "type": "SCALAR",
      "byteOffset": 5808
    },
    {
      "bufferView": 6,
      "componentType": 5123,
      "count": 1302,
      "type": "SCALAR",
      "byteOffset": 6396
    },
    {
      "bufferView": 6,
      "componentType": 5123,
      "count": 48,
      "type": "SCALAR",
      "byteOffset": 9000
    },
    {
      "bufferView": 7,
      "componentType": 5123,
      "count": 810,
      "type": "SCALAR"
    }
  ],
  "bufferViews": [
    {
      "buffer": 0,
      "byteLength": 19732
    },
    {
      "buffer": 0,
      "byteOffset": 19740,
      "byteLength": 27672,
      "target": 34962,
      "byteStride": 12
    },
    {
      "buffer": 0,
      "byteOffset": 47412,
      "byteLength": 27672,
      "target": 34962,
      "byteStride": 12
    },
    {
      "buffer": 0,
      "byteOffset": 75084,
      "byteLength": 3792,
      "target": 34962,
      "byteStride": 12
    },
    {
      "buffer": 0,
      "byteOffset": 78876,
      "byteLength": 3792,
      "target": 34962,
      "byteStride": 12
    },
    {
      "buffer": 0,
      "byteOffset": 82672,
      "byteLength": 2528,
      "target": 34962,
      "byteStride": 8
    },
    {
      "buffer": 0,
      "byteOffset": 85200,
      "byteLength": 9096,
      "target": 34963
    },
    {
      "buffer": 0,
      "byteOffset": 94296,
      "byteLength": 1620,
      "target": 34963
    }
  ],
  "buffers": [
    {
      "uri": "data:application/octet-stream;base64,",
      "byteLength": 95916
    }
  ]
}