{
  "asset": {
    "version": "2.0",
    "generator": "Sketchup glTF Exporter v1.2.6 by Centaur"
  },
  "scene": 0,
  "scenes": [
    {
      "nodes": [
        0
      ]
    }
  ],
  "samplers": [
    {
    }
  ],
  "nodes": [
    {
      "name": "root",
      "children": [
        1
      ]
    },
    {
      "children": [
        2
      ]
    },
    {
      "name": "c棟",
      "mesh": 0
    }
  ],
  "materials": [
    {
      "pbrMetallicRoughness": {
        "baseColorTexture": {
          "index": 0
        },
        "metallicFactor": 0.1,
        "roughnessFactor": 0.9
      },
      "name": "新拋光的混凝土"
    },
    {
      "pbrMetallicRoughness": {
        "baseColorTexture": {
          "index": 1
        },
        "metallicFactor": 0.1,
        "roughnessFactor": 0.9
      },
      "name": "紅色的直立接縫金屬屋頂"
    },
    {
      "pbrMetallicRoughness": {
        "baseColorFactor": [
          0.2176,
          0.2176,
          0.2176,
          1.0
        ],
        "metallicFactor": 0.1,
        "roughnessFactor": 0.9
      },
      "name": "default material",
      "doubleSided": true
    }
  ],
  "images": [
    {
      "bufferView": 0,
      "mimeType": "image/jpeg"
    },
    {
      "bufferView": 1,
      "mimeType": "image/jpeg"
    }
  ],
  "textures": [
    {
      "source": 0,
      "sampler": 0
    },
    {
      "source": 1,
      "sampler": 0
    }
  ],
  "meshes": [
    {
      "primitives": [
        {
          "attributes": {
            "POSITION": 2,
            "NORMAL": 3,
            "TEXCOORD_0": 4
          },
          "indices": 5,
          "mode": 4,
          "material": 0
        },
        {
          "attributes": {
            "POSITION": 2,
            "NORMAL": 3,
            "TEXCOORD_0": 4
          },
          "indices": 6,
          "mode": 4,
          "material": 1
        },
        {
          "attributes": {
            "POSITION": 0,
            "NORMAL": 1
          },
          "indices": 7,
          "mode": 4,
          "material": 2
        }
      ]
    }
  ],
  "accessors": [
    {
      "bufferView": 2,
      "componentType": 5126,
      "count": 368,
      "type": "VEC3",
      "min": [
        -23.42913078338721,
        -5.864668089037596e-14,
        -14.378927584864748
      ],
      "max": [
        23.42913078338726,
        2.5199999999999494,
        14.378927584864693
      ]
    },
    {
      "bufferView": 3,
      "componentType": 5126,
      "count": 368,
      "type": "VEC3",
      "min": [
        -0.9079837807877875,
        -1.0,
        -0.9079837807877973
      ],
      "max": [
        0.9079837807877875,
        1.0,
        0.9079837807878152
      ]
    },
    {
      "bufferView": 4,
      "componentType": 5126,
      "count": 362,
      "type": "VEC3",
      "min": [
        -23.44013610491426,
        -5.864668089037596e-14,
        -14.402776097272785
      ],
      "max": [
        23.440136104914316,
        4.3334310174506,
        14.402776097272735
      ]
    },
    {
      "bufferView": 5,
      "componentType": 5126,
      "count": 362,
      "type": "VEC3",
      "min": [
        -0.9079837807877875,
        -1.0,
        -0.9079837807878152
      ],
      "max": [
        0.9079837807877899,
        1.0,
        0.9079837807878018
      ]
    },
    {
      "bufferView": 6,
      "componentType": 5126,
      "count": 362,
      "type": "VEC2",
      "min": [
        -94.33276255577934,
        -21.94151873916086
      ],
      "max": [
        94.33276255577934,
        32.10381872200044
      ]
    },
    {
      "bufferView": 8,
      "componentType": 5123,
      "count": 990,
      "type": "SCALAR"
    },
    {
      "bufferView": 8,
      "componentType": 5123,
      "count": 72,
      "type": "SCALAR",
      "byteOffset": 1980
    },
    {
      "bufferView": 7,
      "componentType": 5123,
      "count": 582,
      "type": "SCALAR"
    }
  ],
  "bufferViews": [
    {
      "buffer": 0,
      "byteLength": 14777
    },
    {
      "buffer": 0,
      "byteOffset": 14777,
      "byteLength": 1443
    },
    {
      "buffer": 0,
      "byteOffset": 16224,
      "byteLength": 4416,
      "target": 34962,
      "byteStride": 12
    },
    {
      "buffer": 0,
      "byteOffset": 20640,
      "byteLength": 4416,
      "target": 34962,
      "byteStride": 12
    },
    {
      "buffer": 0,
      "byteOffset": 25056,
      "byteLength": 4344,
      "target": 34962,
      "byteStride": 12
    },
    {
      "buffer": 0,
      "byteOffset": 29400,
      "byteLength": 4344,
      "target": 34962,
      "byteStride": 12
    },
    {
      "buffer": 0,
      "byteOffset": 33744,
      "byteLength": 2896,
      "target": 34962,
      "byteStride": 8
    },
    {
      "buffer": 0,
      "byteOffset": 36640,
      "byteLength": 1164,
      "target": 34963
    },
    {
      "buffer": 0,
      "byteOffset": 37804,
      "byteLength": 2124,
      "target": 34963
    }
  ],
  "buffers": [
    {
      "uri": "data:application/octet-stream;base64,",
      "byteLength": 39928
    }
  ]
}