{
  "asset": {
    "version": "2.0",
    "generator": "Sketchup glTF Exporter v1.2.6 by Centaur"
  },
  "scene": 0,
  "scenes": [
    {
      "nodes": [
        0
      ]
    }
  ],
  "samplers": [
    {
    }
  ],
  "nodes": [
    {
      "name": "root",
      "children": [
        1
      ]
    },
    {
      "children": [
        2
      ]
    },
    {
      "name": "D棟",
      "mesh": 0
    }
  ],
  "materials": [
    {
      "pbrMetallicRoughness": {
        "baseColorFactor": [
          0.2176,
          0.2176,
          0.2176,
          1.0
        ],
        "metallicFactor": 0.1,
        "roughnessFactor": 0.9
      },
      "name": "default material",
      "doubleSided": true
    },
    {
      "pbrMetallicRoughness": {
        "baseColorTexture": {
          "index": 0
        },
        "metallicFactor": 0.1,
        "roughnessFactor": 0.9
      },
      "name": "材料18"
    }
  ],
  "images": [
    {
      "bufferView": 0,
      "mimeType": "image/jpeg"
    }
  ],
  "textures": [
    {
      "source": 0,
      "sampler": 0
    }
  ],
  "meshes": [
    {
      "primitives": [
        {
          "attributes": {
            "POSITION": 0,
            "NORMAL": 1
          },
          "indices": 5,
          "mode": 4,
          "material": 0
        },
        {
          "attributes": {
            "POSITION": 2,
            "NORMAL": 3,
            "TEXCOORD_0": 4
          },
          "indices": 6,
          "mode": 4,
          "material": 1
        }
      ]
    }
  ],
  "accessors": [
    {
      "bufferView": 1,
      "componentType": 5126,
      "count": 564,
      "type": "VEC3",
      "min": [
        -14.819835986046073,
        -4.989212352710588e-14,
        -8.986891138230217
      ],
      "max": [
        12.815623426551209,
        3.150199999999957,
        9.911770851125905
      ]
    },
    {
      "bufferView": 2,
      "componentType": 5126,
      "count": 564,
      "type": "VEC3",
      "min": [
        -0.9079837807864638,
        -1.0,
        -0.9079837807864574
      ],
      "max": [
        0.9079837807864649,
        1.0,
        0.9079837807864576
      ]
    },
    {
      "bufferView": 3,
      "componentType": 5126,
      "count": 130,
      "type": "VEC3",
      "min": [
        -14.783645184711702,
        -4.965954096123949e-14,
        -8.986891138230217
      ],
      "max": [
        12.815623426551209,
        2.569199999999958,
        9.886610904044383
      ]
    },
    {
      "bufferView": 4,
      "componentType": 5126,
      "count": 130,
      "type": "VEC3",
      "min": [
        -0.9079837807864576,
        -1.565639329158817e-16,
        -0.885375716325045
      ],
      "max": [
        0.9079837807864576,
        1.0,
        0.8853757138182086
      ]
    },
    {
      "bufferView": 5,
      "componentType": 5126,
      "count": 130,
      "type": "VEC2",
      "min": [
        -53.160526315789454,
        -19.43200291884502
      ],
      "max": [
        53.160526315789454,
        3.824746753918413
      ]
    },
    {
      "bufferView": 6,
      "componentType": 5123,
      "count": 1125,
      "type": "SCALAR"
    },
    {
      "bufferView": 7,
      "componentType": 5121,
      "count": 282,
      "type": "SCALAR"
    }
  ],
  "bufferViews": [
    {
      "buffer": 0,
      "byteLength": 135307
    },
    {
      "buffer": 0,
      "byteOffset": 135312,
      "byteLength": 6768,
      "target": 34962,
      "byteStride": 12
    },
    {
      "buffer": 0,
      "byteOffset": 142080,
      "byteLength": 6768,
      "target": 34962,
      "byteStride": 12
    },
    {
      "buffer": 0,
      "byteOffset": 148848,
      "byteLength": 1560,
      "target": 34962,
      "byteStride": 12
    },
    {
      "buffer": 0,
      "byteOffset": 150408,
      "byteLength": 1560,
      "target": 34962,
      "byteStride": 12
    },
    {
      "buffer": 0,
      "byteOffset": 151968,
      "byteLength": 1040,
      "target": 34962,
      "byteStride": 8
    },
    {
      "buffer": 0,
      "byteOffset": 153008,
      "byteLength": 2250,
      "target": 34963
    },
    {
      "buffer": 0,
      "byteOffset": 155258,
      "byteLength": 282,
      "target": 34963
    }
  ],
  "buffers": [
    {
      "uri": "data:application/octet-stream;base64,",
      "byteLength": 155540
    }
  ]
}