{
  "asset": {
    "version": "2.0",
    "generator": "Sketchup glTF Exporter v1.2.6 by Centaur"
  },
  "scene": 0,
  "scenes": [
    {
      "nodes": [
        0
      ]
    }
  ],
  "samplers": [
    {
    }
  ],
  "nodes": [
    {
      "name": "root",
      "children": [
        1
      ]
    },
    {
      "children": [
        2
      ]
    },
    {
      "name": "f棟",
      "mesh": 0
    }
  ],
  "materials": [
    {
      "pbrMetallicRoughness": {
        "baseColorFactor": [
          0.2176,
          0.2176,
          0.2176,
          1.0
        ],
        "metallicFactor": 0.1,
        "roughnessFactor": 0.9
      },
      "name": "default material",
      "doubleSided": true
    },
    {
      "pbrMetallicRoughness": {
        "baseColorTexture": {
          "index": 0
        },
        "metallicFactor": 0.1,
        "roughnessFactor": 0.9
      },
      "name": "粗獷金屬"
    },
    {
      "pbrMetallicRoughness": {
        "baseColorTexture": {
          "index": 1
        },
        "metallicFactor": 0.1,
        "roughnessFactor": 0.9
      },
      "name": "材料8"
    }
  ],
  "images": [
    {
      "bufferView": 0,
      "mimeType": "image/jpeg"
    },
    {
      "bufferView": 1,
      "mimeType": "image/jpeg"
    }
  ],
  "textures": [
    {
      "source": 0,
      "sampler": 0
    },
    {
      "source": 1,
      "sampler": 0
    }
  ],
  "meshes": [
    {
      "primitives": [
        {
          "attributes": {
            "POSITION": 0,
            "NORMAL": 1
          },
          "indices": 5,
          "mode": 4,
          "material": 0
        },
        {
          "attributes": {
            "POSITION": 2,
            "NORMAL": 3,
            "TEXCOORD_0": 4
          },
          "indices": 6,
          "mode": 4,
          "material": 1
        },
        {
          "attributes": {
            "POSITION": 2,
            "NORMAL": 3,
            "TEXCOORD_0": 4
          },
          "indices": 7,
          "mode": 4,
          "material": 2
        }
      ]
    }
  ],
  "accessors": [
    {
      "bufferView": 2,
      "componentType": 5126,
      "count": 102,
      "type": "VEC3",
      "min": [
        -23.65388201795228,
        -5.6399958689165585e-14,
        -14.633674023813692
      ],
      "max": [
        23.60922586029321,
        4.767062392073655,
        14.536904208646638
      ]
    },
    {
      "bufferView": 3,
      "componentType": 5126,
      "count": 102,
      "type": "VEC3",
      "min": [
        -0.9079837807877914,
        -1.0,
        -0.9079837807877922
      ],
      "max": [
        0.9079837807877914,
        0.9900879665760525,
        0.9079837807877922
      ]
    },
    {
      "bufferView": 4,
      "componentType": 5126,
      "count": 304,
      "type": "VEC3",
      "min": [
        -23.65388201795228,
        -5.6399958689165585e-14,
        -14.633674023813692
      ],
      "max": [
        23.60922586029321,
        4.767062392073655,
        14.536904208646638
      ]
    },
    {
      "bufferView": 5,
      "componentType": 5126,
      "count": 304,
      "type": "VEC3",
      "min": [
        -0.9079837807877914,
        -1.0,
        -0.9079837807877922
      ],
      "max": [
        0.9079837807877914,
        1.0,
        0.9079837807877922
      ]
    },
    {
      "bufferView": 6,
      "componentType": 5126,
      "count": 304,
      "type": "VEC2",
      "min": [
        -243.125,
        -242.125
      ],
      "max": [
        243.125,
        16.893645993418907
      ]
    },
    {
      "bufferView": 7,
      "componentType": 5121,
      "count": 210,
      "type": "SCALAR"
    },
    {
      "bufferView": 8,
      "componentType": 5123,
      "count": 540,
      "type": "SCALAR"
    },
    {
      "bufferView": 8,
      "componentType": 5123,
      "count": 60,
      "type": "SCALAR",
      "byteOffset": 1080
    }
  ],
  "bufferViews": [
    {
      "buffer": 0,
      "byteLength": 2032
    },
    {
      "buffer": 0,
      "byteOffset": 2032,
      "byteLength": 135307
    },
    {
      "buffer": 0,
      "byteOffset": 137340,
      "byteLength": 1224,
      "target": 34962,
      "byteStride": 12
    },
    {
      "buffer": 0,
      "byteOffset": 138564,
      "byteLength": 1224,
      "target": 34962,
      "byteStride": 12
    },
    {
      "buffer": 0,
      "byteOffset": 139788,
      "byteLength": 3648,
      "target": 34962,
      "byteStride": 12
    },
    {
      "buffer": 0,
      "byteOffset": 143436,
      "byteLength": 3648,
      "target": 34962,
      "byteStride": 12
    },
    {
      "buffer": 0,
      "byteOffset": 147088,
      "byteLength": 2432,
      "target": 34962,
      "byteStride": 8
    },
    {
      "buffer": 0,
      "byteOffset": 149520,
      "byteLength": 210,
      "target": 34963
    },
    {
      "buffer": 0,
      "byteOffset": 149730,
      "byteLength": 1200,
      "target": 34963
    }
  ],
  "buffers": [
    {
      "uri": "data:application/octet-stream;base64,",
      "byteLength": 150930
    }
  ]
}