{
  "asset": {
    "version": "2.0",
    "generator": "Sketchup glTF Exporter v1.2.6 by Centaur"
  },
  "scene": 0,
  "scenes": [
    {
      "nodes": [
        0
      ]
    }
  ],
  "samplers": [
    {
    }
  ],
  "nodes": [
    {
      "name": "root",
      "children": [
        1
      ]
    },
    {
      "children": [
        2
      ]
    },
    {
      "name": "J棟",
      "children": [
        3,
        4
      ],
      "mesh": 2
    },
    {
      "name": "元件#4",
      "mesh": 0
    },
    {
      "name": "元件#4",
      "mesh": 1
    }
  ],
  "materials": [
    {
      "pbrMetallicRoughness": {
        "baseColorFactor": [
          0.2195,
          0.2195,
          0.2195,
          0.5
        ],
        "metallicFactor": 0.1,
        "roughnessFactor": 0.9
      },
      "name": "半透明灰色玻璃",
      "doubleSided": true,
      "alphaMode": "BLEND"
    },
    {
      "pbrMetallicRoughness": {
        "baseColorTexture": {
          "index": 0
        },
        "metallicFactor": 0.0,
        "roughnessFactor": 0.7
      },
      "name": "垂直圖樣百葉窗"
    },
    {
      "pbrMetallicRoughness": {
        "baseColorTexture": {
          "index": 1
        },
        "metallicFactor": 0.1,
        "roughnessFactor": 0.9
      },
      "name": "金屬縫"
    },
    {
      "pbrMetallicRoughness": {
        "baseColorTexture": {
          "index": 2
        },
        "metallicFactor": 0.0,
        "roughnessFactor": 0.7
      },
      "name": "材料17",
      "doubleSided": true
    },
    {
      "pbrMetallicRoughness": {
        "baseColorTexture": {
          "index": 3
        },
        "metallicFactor": 0.1,
        "roughnessFactor": 0.9
      },
      "name": "材料65",
      "doubleSided": true
    },
    {
      "pbrMetallicRoughness": {
        "baseColorTexture": {
          "index": 4
        },
        "metallicFactor": 0.0,
        "roughnessFactor": 0.7
      },
      "name": "粗獷金屬"
    },
    {
      "pbrMetallicRoughness": {
        "baseColorFactor": [
          0.2176,
          0.2176,
          0.2176,
          1.0
        ],
        "metallicFactor": 0.1,
        "roughnessFactor": 0.9
      },
      "name": "default material",
      "doubleSided": true
    },
    {
      "pbrMetallicRoughness": {
        "baseColorTexture": {
          "index": 5
        },
        "metallicFactor": 0.0,
        "roughnessFactor": 0.7
      },
      "name": "[Polished Concrete New]2",
      "doubleSided": true
    }
  ],
  "images": [
    {
      "bufferView": 0,
      "mimeType": "image/jpeg"
    },
    {
      "bufferView": 1,
      "mimeType": "image/jpeg"
    },
    {
      "bufferView": 2,
      "mimeType": "image/jpeg"
    },
    {
      "bufferView": 3,
      "mimeType": "image/jpeg"
    },
    {
      "bufferView": 4,
      "mimeType": "image/jpeg"
    },
    {
      "bufferView": 5,
      "mimeType": "image/jpeg"
    }
  ],
  "textures": [
    {
      "source": 0,
      "sampler": 0
    },
    {
      "source": 1,
      "sampler": 0
    },
    {
      "source": 2,
      "sampler": 0
    },
    {
      "source": 3,
      "sampler": 0
    },
    {
      "source": 4,
      "sampler": 0
    },
    {
      "source": 5,
      "sampler": 0
    }
  ],
  "meshes": [
    {
      "primitives": [
        {
          "attributes": {
            "POSITION": 2,
            "NORMAL": 3,
            "TEXCOORD_0": 4
          },
          "indices": 5,
          "mode": 4,
          "material": 5
        },
        {
          "attributes": {
            "POSITION": 0,
            "NORMAL": 1
          },
          "indices": 6,
          "mode": 4,
          "material": 6
        }
      ]
    },
    {
      "primitives": [
        {
          "attributes": {
            "POSITION": 2,
            "NORMAL": 3,
            "TEXCOORD_0": 4
          },
          "indices": 7,
          "mode": 4,
          "material": 5
        },
        {
          "attributes": {
            "POSITION": 0,
            "NORMAL": 1
          },
          "indices": 8,
          "mode": 4,
          "material": 6
        }
      ]
    },
    {
      "primitives": [
        {
          "attributes": {
            "POSITION": 0,
            "NORMAL": 1
          },
          "indices": 9,
          "mode": 4,
          "material": 0
        },
        {
          "attributes": {
            "POSITION": 2,
            "NORMAL": 3,
            "TEXCOORD_0": 4
          },
          "indices": 10,
          "mode": 4,
          "material": 1
        },
        {
          "attributes": {
            "POSITION": 2,
            "NORMAL": 3,
            "TEXCOORD_0": 4
          },
          "indices": 11,
          "mode": 4,
          "material": 2
        },
        {
          "attributes": {
            "POSITION": 2,
            "NORMAL": 3,
            "TEXCOORD_0": 4
          },
          "indices": 12,
          "mode": 4,
          "material": 3
        },
        {
          "attributes": {
            "POSITION": 2,
            "NORMAL": 3,
            "TEXCOORD_0": 4
          },
          "indices": 13,
          "mode": 4,
          "material": 4
        },
        {
          "attributes": {
            "POSITION": 0,
            "NORMAL": 1
          },
          "indices": 14,
          "mode": 4,
          "material": 6
        },
        {
          "attributes": {
            "POSITION": 2,
            "NORMAL": 3,
            "TEXCOORD_0": 4
          },
          "indices": 15,
          "mode": 4,
          "material": 7
        }
      ]
    }
  ],
  "accessors": [
    {
      "bufferView": 6,
      "componentType": 5126,
      "count": 187,
      "type": "VEC3",
      "min": [
        -14.630539309482062,
        -2.2043688822314424e-09,
        -8.6209234729789
      ],
      "max": [
        14.074497817245303,
        2.554999989842091,
        9.04933206333542
      ]
    },
    {
      "bufferView": 7,
      "componentType": 5126,
      "count": 187,
      "type": "VEC3",
      "min": [
        -0.3694757612707026,
        -1.0,
        -0.9292403681682907
      ],
      "max": [
        0.36947576127061177,
        8.438932395094656e-16,
        0.92924036816827
      ]
    },
    {
      "bufferView": 8,
      "componentType": 5126,
      "count": 2472,
      "type": "VEC3",
      "min": [
        -16.484455231776227,
        -1.0157914947559552e-08,
        -11.057420511849942
      ],
      "max": [
        16.46184940580151,
        5.588450556424538,
        11.004916464907827
      ]
    },
    {
      "bufferView": 9,
      "componentType": 5126,
      "count": 2472,
      "type": "VEC3",
      "min": [
        -0.9292403683842612,
        -1.0,
        -0.9310311122467453
      ],
      "max": [
        0.9292403684488507,
        1.0,
        0.92924036816827
      ]
    },
    {
      "bufferView": 10,
      "componentType": 5126,
      "count": 2472,
      "type": "VEC2",
      "min": [
        -66.39006662648384,
        -190.66702979092912
      ],
      "max": [
        191.9698765196395,
        4.9796889401433555
      ]
    },
    {
      "bufferView": 12,
      "componentType": 5123,
      "count": 114,
      "type": "SCALAR"
    },
    {
      "bufferView": 11,
      "componentType": 5121,
      "count": 6,
      "type": "SCALAR"
    },
    {
      "bufferView": 12,
      "componentType": 5123,
      "count": 114,
      "type": "SCALAR",
      "byteOffset": 228
    },
    {
      "bufferView": 11,
      "componentType": 5121,
      "count": 6,
      "type": "SCALAR",
      "byteOffset": 6
    },
    {
      "bufferView": 11,
      "componentType": 5121,
      "count": 306,
      "type": "SCALAR",
      "byteOffset": 12
    },
    {
      "bufferView": 12,
      "componentType": 5123,
      "count": 1818,
      "type": "SCALAR",
      "byteOffset": 456
    },
    {
      "bufferView": 12,
      "componentType": 5123,
      "count": 1353,
      "type": "SCALAR",
      "byteOffset": 4092
    },
    {
      "bufferView": 12,
      "componentType": 5123,
      "count": 276,
      "type": "SCALAR",
      "byteOffset": 6798
    },
    {
      "bufferView": 12,
      "componentType": 5123,
      "count": 1071,
      "type": "SCALAR",
      "byteOffset": 7350
    },
    {
      "bufferView": 11,
      "componentType": 5121,
      "count": 87,
      "type": "SCALAR",
      "byteOffset": 318
    },
    {
      "bufferView": 12,
      "componentType": 5123,
      "count": 18,
      "type": "SCALAR",
      "byteOffset": 9492
    }
  ],
  "bufferViews": [
    {
      "buffer": 0,
      "byteLength": 6473
    },
    {
      "buffer": 0,
      "byteOffset": 6473,
      "byteLength": 1627
    },
    {
      "buffer": 0,
      "byteOffset": 8100,
      "byteLength": 138275
    },
    {
      "buffer": 0,
      "byteOffset": 146375,
      "byteLength": 6502
    },
    {
      "buffer": 0,
      "byteOffset": 152877,
      "byteLength": 2032
    },
    {
      "buffer": 0,
      "byteOffset": 154909,
      "byteLength": 14768
    },
    {
      "buffer": 0,
      "byteOffset": 169680,
      "byteLength": 2244,
      "target": 34962,
      "byteStride": 12
    },
    {
      "buffer": 0,
      "byteOffset": 171924,
      "byteLength": 2244,
      "target": 34962,
      "byteStride": 12
    },
    {
      "buffer": 0,
      "byteOffset": 174168,
      "byteLength": 29664,
      "target": 34962,
      "byteStride": 12
    },
    {
      "buffer": 0,
      "byteOffset": 203832,
      "byteLength": 29664,
      "target": 34962,
      "byteStride": 12
    },
    {
      "buffer": 0,
      "byteOffset": 233496,
      "byteLength": 19776,
      "target": 34962,
      "byteStride": 8
    },
    {
      "buffer": 0,
      "byteOffset": 253272,
      "byteLength": 405,
      "target": 34963
    },
    {
      "buffer": 0,
      "byteOffset": 253678,
      "byteLength": 9528,
      "target": 34963
    }
  ],
  "buffers": [
    {
      "uri": "data:application/octet-stream;base64,",
      "byteLength": 263206
    }
  ]
}