{
  "asset": {
    "version": "2.0",
    "generator": "Sketchup glTF Exporter v1.2.6 by Centaur"
  },
  "scene": 0,
  "scenes": [
    {
      "nodes": [
        0
      ]
    }
  ],
  "samplers": [
    {
    }
  ],
  "nodes": [
    {
      "name": "root",
      "children": [
        1
      ]
    },
    {
      "children": [
        2
      ]
    },
    {
      "name": "K棟",
      "children": [
        3,
        4,
        5,
        6,
        7,
        8,
        9,
        10,
        11,
        12,
        13,
        14,
        15,
        16
      ],
      "mesh": 14
    },
    {
      "mesh": 0
    },
    {
      "mesh": 1
    },
    {
      "mesh": 2
    },
    {
      "mesh": 3
    },
    {
      "mesh": 4
    },
    {
      "mesh": 5
    },
    {
      "mesh": 6
    },
    {
      "mesh": 7
    },
    {
      "mesh": 8
    },
    {
      "mesh": 9
    },
    {
      "mesh": 10
    },
    {
      "mesh": 11
    },
    {
      "mesh": 12
    },
    {
      "mesh": 13
    }
  ],
  "materials": [
    {
      "pbrMetallicRoughness": {
        "baseColorTexture": {
          "index": 0
        },
        "metallicFactor": 0.1,
        "roughnessFactor": 0.9
      },
      "name": "材料66",
      "doubleSided": true
    },
    {
      "pbrMetallicRoughness": {
        "baseColorFactor": [
          0.2195,
          0.2195,
          0.2195,
          0.5
        ],
        "metallicFactor": 0.1,
        "roughnessFactor": 0.9
      },
      "name": "半透明灰色玻璃",
      "alphaMode": "BLEND"
    },
    {
      "pbrMetallicRoughness": {
        "baseColorTexture": {
          "index": 1
        },
        "metallicFactor": 0.1,
        "roughnessFactor": 0.9
      },
      "name": "材料65"
    },
    {
      "pbrMetallicRoughness": {
        "baseColorFactor": [
          0.2176,
          0.2176,
          0.2176,
          1.0
        ],
        "metallicFactor": 0.1,
        "roughnessFactor": 0.9
      },
      "name": "default material",
      "doubleSided": true
    },
    {
      "pbrMetallicRoughness": {
        "baseColorTexture": {
          "index": 2
        },
        "metallicFactor": 0.0,
        "roughnessFactor": 0.7
      },
      "name": "粗獷金屬"
    },
    {
      "pbrMetallicRoughness": {
        "baseColorTexture": {
          "index": 3
        },
        "metallicFactor": 0.1,
        "roughnessFactor": 0.9
      },
      "name": "金屬縫"
    },
    {
      "pbrMetallicRoughness": {
        "baseColorTexture": {
          "index": 4
        },
        "metallicFactor": 0.0,
        "roughnessFactor": 0.7
      },
      "name": "垂直圖樣百葉窗"
    }
  ],
  "images": [
    {
      "bufferView": 0,
      "mimeType": "image/jpeg"
    },
    {
      "bufferView": 1,
      "mimeType": "image/jpeg"
    },
    {
      "bufferView": 2,
      "mimeType": "image/jpeg"
    },
    {
      "bufferView": 3,
      "mimeType": "image/jpeg"
    },
    {
      "bufferView": 4,
      "mimeType": "image/jpeg"
    }
  ],
  "textures": [
    {
      "source": 0,
      "sampler": 0
    },
    {
      "source": 1,
      "sampler": 0
    },
    {
      "source": 2,
      "sampler": 0
    },
    {
      "source": 3,
      "sampler": 0
    },
    {
      "source": 4,
      "sampler": 0
    }
  ],
  "meshes": [
    {
      "primitives": [
        {
          "attributes": {
            "POSITION": 2,
            "NORMAL": 3,
            "TEXCOORD_0": 4
          },
          "indices": 5,
          "mode": 4,
          "material": 4
        },
        {
          "attributes": {
            "POSITION": 0,
            "NORMAL": 1
          },
          "indices": 6,
          "mode": 4,
          "material": 3
        },
        {
          "attributes": {
            "POSITION": 0,
            "NORMAL": 1
          },
          "indices": 7,
          "mode": 4,
          "material": 1
        }
      ]
    },
    {
      "primitives": [
        {
          "attributes": {
            "POSITION": 2,
            "NORMAL": 3,
            "TEXCOORD_0": 4
          },
          "indices": 8,
          "mode": 4,
          "material": 5
        },
        {
          "attributes": {
            "POSITION": 2,
            "NORMAL": 3,
            "TEXCOORD_0": 4
          },
          "indices": 9,
          "mode": 4,
          "material": 6
        },
        {
          "attributes": {
            "POSITION": 0,
            "NORMAL": 1
          },
          "indices": 10,
          "mode": 4,
          "material": 1
        }
      ]
    },
    {
      "primitives": [
        {
          "attributes": {
            "POSITION": 2,
            "NORMAL": 3,
            "TEXCOORD_0": 4
          },
          "indices": 11,
          "mode": 4,
          "material": 5
        },
        {
          "attributes": {
            "POSITION": 2,
            "NORMAL": 3,
            "TEXCOORD_0": 4
          },
          "indices": 12,
          "mode": 4,
          "material": 6
        },
        {
          "attributes": {
            "POSITION": 0,
            "NORMAL": 1
          },
          "indices": 13,
          "mode": 4,
          "material": 1
        }
      ]
    },
    {
      "primitives": [
        {
          "attributes": {
            "POSITION": 2,
            "NORMAL": 3,
            "TEXCOORD_0": 4
          },
          "indices": 14,
          "mode": 4,
          "material": 5
        },
        {
          "attributes": {
            "POSITION": 2,
            "NORMAL": 3,
            "TEXCOORD_0": 4
          },
          "indices": 15,
          "mode": 4,
          "material": 6
        },
        {
          "attributes": {
            "POSITION": 0,
            "NORMAL": 1
          },
          "indices": 16,
          "mode": 4,
          "material": 1
        }
      ]
    },
    {
      "primitives": [
        {
          "attributes": {
            "POSITION": 2,
            "NORMAL": 3,
            "TEXCOORD_0": 4
          },
          "indices": 17,
          "mode": 4,
          "material": 5
        },
        {
          "attributes": {
            "POSITION": 2,
            "NORMAL": 3,
            "TEXCOORD_0": 4
          },
          "indices": 18,
          "mode": 4,
          "material": 6
        },
        {
          "attributes": {
            "POSITION": 0,
            "NORMAL": 1
          },
          "indices": 19,
          "mode": 4,
          "material": 1
        }
      ]
    },
    {
      "primitives": [
        {
          "attributes": {
            "POSITION": 2,
            "NORMAL": 3,
            "TEXCOORD_0": 4
          },
          "indices": 20,
          "mode": 4,
          "material": 5
        },
        {
          "attributes": {
            "POSITION": 2,
            "NORMAL": 3,
            "TEXCOORD_0": 4
          },
          "indices": 21,
          "mode": 4,
          "material": 6
        },
        {
          "attributes": {
            "POSITION": 0,
            "NORMAL": 1
          },
          "indices": 22,
          "mode": 4,
          "material": 1
        }
      ]
    },
    {
      "primitives": [
        {
          "attributes": {
            "POSITION": 2,
            "NORMAL": 3,
            "TEXCOORD_0": 4
          },
          "indices": 23,
          "mode": 4,
          "material": 5
        },
        {
          "attributes": {
            "POSITION": 2,
            "NORMAL": 3,
            "TEXCOORD_0": 4
          },
          "indices": 24,
          "mode": 4,
          "material": 6
        },
        {
          "attributes": {
            "POSITION": 0,
            "NORMAL": 1
          },
          "indices": 25,
          "mode": 4,
          "material": 1
        }
      ]
    },
    {
      "primitives": [
        {
          "attributes": {
            "POSITION": 2,
            "NORMAL": 3,
            "TEXCOORD_0": 4
          },
          "indices": 26,
          "mode": 4,
          "material": 4
        },
        {
          "attributes": {
            "POSITION": 0,
            "NORMAL": 1
          },
          "indices": 27,
          "mode": 4,
          "material": 3
        },
        {
          "attributes": {
            "POSITION": 0,
            "NORMAL": 1
          },
          "indices": 28,
          "mode": 4,
          "material": 1
        }
      ]
    },
    {
      "primitives": [
        {
          "attributes": {
            "POSITION": 2,
            "NORMAL": 3,
            "TEXCOORD_0": 4
          },
          "indices": 29,
          "mode": 4,
          "material": 5
        },
        {
          "attributes": {
            "POSITION": 2,
            "NORMAL": 3,
            "TEXCOORD_0": 4
          },
          "indices": 30,
          "mode": 4,
          "material": 6
        },
        {
          "attributes": {
            "POSITION": 0,
            "NORMAL": 1
          },
          "indices": 31,
          "mode": 4,
          "material": 1
        }
      ]
    },
    {
      "primitives": [
        {
          "attributes": {
            "POSITION": 2,
            "NORMAL": 3,
            "TEXCOORD_0": 4
          },
          "indices": 32,
          "mode": 4,
          "material": 5
        },
        {
          "attributes": {
            "POSITION": 2,
            "NORMAL": 3,
            "TEXCOORD_0": 4
          },
          "indices": 33,
          "mode": 4,
          "material": 6
        },
        {
          "attributes": {
            "POSITION": 0,
            "NORMAL": 1
          },
          "indices": 34,
          "mode": 4,
          "material": 1
        }
      ]
    },
    {
      "primitives": [
        {
          "attributes": {
            "POSITION": 2,
            "NORMAL": 3,
            "TEXCOORD_0": 4
          },
          "indices": 35,
          "mode": 4,
          "material": 5
        },
        {
          "attributes": {
            "POSITION": 2,
            "NORMAL": 3,
            "TEXCOORD_0": 4
          },
          "indices": 36,
          "mode": 4,
          "material": 6
        },
        {
          "attributes": {
            "POSITION": 0,
            "NORMAL": 1
          },
          "indices": 37,
          "mode": 4,
          "material": 1
        }
      ]
    },
    {
      "primitives": [
        {
          "attributes": {
            "POSITION": 2,
            "NORMAL": 3,
            "TEXCOORD_0": 4
          },
          "indices": 38,
          "mode": 4,
          "material": 5
        },
        {
          "attributes": {
            "POSITION": 2,
            "NORMAL": 3,
            "TEXCOORD_0": 4
          },
          "indices": 39,
          "mode": 4,
          "material": 6
        },
        {
          "attributes": {
            "POSITION": 0,
            "NORMAL": 1
          },
          "indices": 40,
          "mode": 4,
          "material": 1
        }
      ]
    },
    {
      "primitives": [
        {
          "attributes": {
            "POSITION": 2,
            "NORMAL": 3,
            "TEXCOORD_0": 4
          },
          "indices": 41,
          "mode": 4,
          "material": 5
        },
        {
          "attributes": {
            "POSITION": 2,
            "NORMAL": 3,
            "TEXCOORD_0": 4
          },
          "indices": 42,
          "mode": 4,
          "material": 6
        },
        {
          "attributes": {
            "POSITION": 0,
            "NORMAL": 1
          },
          "indices": 43,
          "mode": 4,
          "material": 1
        }
      ]
    },
    {
      "primitives": [
        {
          "attributes": {
            "POSITION": 2,
            "NORMAL": 3,
            "TEXCOORD_0": 4
          },
          "indices": 44,
          "mode": 4,
          "material": 5
        },
        {
          "attributes": {
            "POSITION": 2,
            "NORMAL": 3,
            "TEXCOORD_0": 4
          },
          "indices": 45,
          "mode": 4,
          "material": 6
        },
        {
          "attributes": {
            "POSITION": 0,
            "NORMAL": 1
          },
          "indices": 46,
          "mode": 4,
          "material": 1
        }
      ]
    },
    {
      "primitives": [
        {
          "attributes": {
            "POSITION": 2,
            "NORMAL": 3,
            "TEXCOORD_0": 4
          },
          "indices": 47,
          "mode": 4,
          "material": 0
        },
        {
          "attributes": {
            "POSITION": 0,
            "NORMAL": 1
          },
          "indices": 48,
          "mode": 4,
          "material": 1
        },
        {
          "attributes": {
            "POSITION": 2,
            "NORMAL": 3,
            "TEXCOORD_0": 4
          },
          "indices": 49,
          "mode": 4,
          "material": 2
        },
        {
          "attributes": {
            "POSITION": 0,
            "NORMAL": 1
          },
          "indices": 50,
          "mode": 4,
          "material": 3
        }
      ]
    }
  ],
  "accessors": [
    {
      "bufferView": 5,
      "componentType": 5126,
      "count": 216,
      "type": "VEC3",
      "min": [
        -12.598031691210595,
        5.910766262739117e-14,
        -7.928772462351195
      ],
      "max": [
        11.024204117298273,
        2.4390000000000516,
        8.904320032711798
      ]
    },
    {
      "bufferView": 6,
      "componentType": 5126,
      "count": 216,
      "type": "VEC3",
      "min": [
        -0.9292403681684017,
        -1.0,
        -0.9292403681684017
      ],
      "max": [
        0.9292403681684017,
        4.967480808308569e-15,
        0.9292403681684018
      ]
    },
    {
      "bufferView": 7,
      "componentType": 5126,
      "count": 1648,
      "type": "VEC3",
      "min": [
        -13.024594106169184,
        4.6622290552394136e-14,
        -10.390696825145799
      ],
      "max": [
        12.969470962218935,
        3.132000000000091,
        9.697789095638358
      ]
    },
    {
      "bufferView": 8,
      "componentType": 5126,
      "count": 1648,
      "type": "VEC3",
      "min": [
        -0.9292403681684855,
        -1.0,
        -0.9292403681684551
      ],
      "max": [
        0.9292403681684898,
        1.0,
        0.9292403681684208
      ]
    },
    {
      "bufferView": 9,
      "componentType": 5126,
      "count": 1648,
      "type": "VEC2",
      "min": [
        -66.3900666262871,
        -190.66702976009762
      ],
      "max": [
        191.9698765196373,
        2.663283897980985
      ]
    },
    {
      "bufferView": 11,
      "componentType": 5123,
      "count": 114,
      "type": "SCALAR"
    },
    {
      "bufferView": 10,
      "componentType": 5121,
      "count": 6,
      "type": "SCALAR"
    },
    {
      "bufferView": 10,
      "componentType": 5121,
      "count": 6,
      "type": "SCALAR",
      "byteOffset": 6
    },
    {
      "bufferView": 11,
      "componentType": 5123,
      "count": 72,
      "type": "SCALAR",
      "byteOffset": 228
    },
    {
      "bufferView": 11,
      "componentType": 5123,
      "count": 102,
      "type": "SCALAR",
      "byteOffset": 372
    },
    {
      "bufferView": 10,
      "componentType": 5121,
      "count": 12,
      "type": "SCALAR",
      "byteOffset": 12
    },
    {
      "bufferView": 11,
      "componentType": 5123,
      "count": 72,
      "type": "SCALAR",
      "byteOffset": 576
    },
    {
      "bufferView": 11,
      "componentType": 5123,
      "count": 102,
      "type": "SCALAR",
      "byteOffset": 720
    },
    {
      "bufferView": 10,
      "componentType": 5121,
      "count": 12,
      "type": "SCALAR",
      "byteOffset": 24
    },
    {
      "bufferView": 11,
      "componentType": 5123,
      "count": 72,
      "type": "SCALAR",
      "byteOffset": 924
    },
    {
      "bufferView": 11,
      "componentType": 5123,
      "count": 102,
      "type": "SCALAR",
      "byteOffset": 1068
    },
    {
      "bufferView": 10,
      "componentType": 5121,
      "count": 12,
      "type": "SCALAR",
      "byteOffset": 36
    },
    {
      "bufferView": 11,
      "componentType": 5123,
      "count": 72,
      "type": "SCALAR",
      "byteOffset": 1272
    },
    {
      "bufferView": 11,
      "componentType": 5123,
      "count": 102,
      "type": "SCALAR",
      "byteOffset": 1416
    },
    {
      "bufferView": 10,
      "componentType": 5121,
      "count": 12,
      "type": "SCALAR",
      "byteOffset": 48
    },
    {
      "bufferView": 11,
      "componentType": 5123,
      "count": 72,
      "type": "SCALAR",
      "byteOffset": 1620
    },
    {
      "bufferView": 11,
      "componentType": 5123,
      "count": 102,
      "type": "SCALAR",
      "byteOffset": 1764
    },
    {
      "bufferView": 10,
      "componentType": 5121,
      "count": 12,
      "type": "SCALAR",
      "byteOffset": 60
    },
    {
      "bufferView": 11,
      "componentType": 5123,
      "count": 72,
      "type": "SCALAR",
      "byteOffset": 1968
    },
    {
      "bufferView": 11,
      "componentType": 5123,
      "count": 102,
      "type": "SCALAR",
      "byteOffset": 2112
    },
    {
      "bufferView": 10,
      "componentType": 5121,
      "count": 12,
      "type": "SCALAR",
      "byteOffset": 72
    },
    {
      "bufferView": 11,
      "componentType": 5123,
      "count": 114,
      "type": "SCALAR",
      "byteOffset": 2316
    },
    {
      "bufferView": 10,
      "componentType": 5121,
      "count": 6,
      "type": "SCALAR",
      "byteOffset": 84
    },
    {
      "bufferView": 10,
      "componentType": 5121,
      "count": 6,
      "type": "SCALAR",
      "byteOffset": 90
    },
    {
      "bufferView": 11,
      "componentType": 5123,
      "count": 72,
      "type": "SCALAR",
      "byteOffset": 2544
    },
    {
      "bufferView": 11,
      "componentType": 5123,
      "count": 102,
      "type": "SCALAR",
      "byteOffset": 2688
    },
    {
      "bufferView": 10,
      "componentType": 5121,
      "count": 12,
      "type": "SCALAR",
      "byteOffset": 96
    },
    {
      "bufferView": 11,
      "componentType": 5123,
      "count": 72,
      "type": "SCALAR",
      "byteOffset": 2892
    },
    {
      "bufferView": 11,
      "componentType": 5123,
      "count": 102,
      "type": "SCALAR",
      "byteOffset": 3036
    },
    {
      "bufferView": 10,
      "componentType": 5121,
      "count": 12,
      "type": "SCALAR",
      "byteOffset": 108
    },
    {
      "bufferView": 11,
      "componentType": 5123,
      "count": 72,
      "type": "SCALAR",
      "byteOffset": 3240
    },
    {
      "bufferView": 11,
      "componentType": 5123,
      "count": 102,
      "type": "SCALAR",
      "byteOffset": 3384
    },
    {
      "bufferView": 10,
      "componentType": 5121,
      "count": 12,
      "type": "SCALAR",
      "byteOffset": 120
    },
    {
      "bufferView": 11,
      "componentType": 5123,
      "count": 72,
      "type": "SCALAR",
      "byteOffset": 3588
    },
    {
      "bufferView": 11,
      "componentType": 5123,
      "count": 102,
      "type": "SCALAR",
      "byteOffset": 3732
    },
    {
      "bufferView": 10,
      "componentType": 5121,
      "count": 12,
      "type": "SCALAR",
      "byteOffset": 132
    },
    {
      "bufferView": 11,
      "componentType": 5123,
      "count": 72,
      "type": "SCALAR",
      "byteOffset": 3936
    },
    {
      "bufferView": 11,
      "componentType": 5123,
      "count": 102,
      "type": "SCALAR",
      "byteOffset": 4080
    },
    {
      "bufferView": 10,
      "componentType": 5121,
      "count": 12,
      "type": "SCALAR",
      "byteOffset": 144
    },
    {
      "bufferView": 11,
      "componentType": 5123,
      "count": 72,
      "type": "SCALAR",
      "byteOffset": 4284
    },
    {
      "bufferView": 11,
      "componentType": 5123,
      "count": 102,
      "type": "SCALAR",
      "byteOffset": 4428
    },
    {
      "bufferView": 10,
      "componentType": 5121,
      "count": 12,
      "type": "SCALAR",
      "byteOffset": 156
    },
    {
      "bufferView": 11,
      "componentType": 5123,
      "count": 1038,
      "type": "SCALAR",
      "byteOffset": 4632
    },
    {
      "bufferView": 10,
      "componentType": 5121,
      "count": 144,
      "type": "SCALAR",
      "byteOffset": 168
    },
    {
      "bufferView": 11,
      "componentType": 5123,
      "count": 102,
      "type": "SCALAR",
      "byteOffset": 6708
    },
    {
      "bufferView": 10,
      "componentType": 5121,
      "count": 12,
      "type": "SCALAR",
      "byteOffset": 312
    }
  ],
  "bufferViews": [
    {
      "buffer": 0,
      "byteLength": 6502
    },
    {
      "buffer": 0,
      "byteOffset": 6502,
      "byteLength": 6502
    },
    {
      "buffer": 0,
      "byteOffset": 13004,
      "byteLength": 2032
    },
    {
      "buffer": 0,
      "byteOffset": 15036,
      "byteLength": 1627
    },
    {
      "buffer": 0,
      "byteOffset": 16663,
      "byteLength": 6473
    },
    {
      "buffer": 0,
      "byteOffset": 23136,
      "byteLength": 2592,
      "target": 34962,
      "byteStride": 12
    },
    {
      "buffer": 0,
      "byteOffset": 25728,
      "byteLength": 2592,
      "target": 34962,
      "byteStride": 12
    },
    {
      "buffer": 0,
      "byteOffset": 28320,
      "byteLength": 19776,
      "target": 34962,
      "byteStride": 12
    },
    {
      "buffer": 0,
      "byteOffset": 48096,
      "byteLength": 19776,
      "target": 34962,
      "byteStride": 12
    },
    {
      "buffer": 0,
      "byteOffset": 67872,
      "byteLength": 13184,
      "target": 34962,
      "byteStride": 8
    },
    {
      "buffer": 0,
      "byteOffset": 81056,
      "byteLength": 324,
      "target": 34963
    },
    {
      "buffer": 0,
      "byteOffset": 81380,
      "byteLength": 6912,
      "target": 34963
    }
  ],
  "buffers": [
    {
      "uri": "data:application/octet-stream;base64,",
      "byteLength": 88292
    }
  ]
}