{
  "asset": {
    "version": "2.0",
    "generator": "Sketchup glTF Exporter v1.2.6 by Centaur"
  },
  "scene": 0,
  "scenes": [
    {
      "nodes": [
        0
      ]
    }
  ],
  "samplers": [
    {
    }
  ],
  "nodes": [
    {
      "name": "root",
      "children": [
        1
      ]
    },
    {
      "children": [
        2
      ]
    },
    {
      "name": "L棟(修)",
      "children": [
        3
      ]
    },
    {
      "mesh": 0
    }
  ],
  "materials": [
    {
      "pbrMetallicRoughness": {
        "baseColorFactor": [
          0.5114,
          0.0759,
          0.043,
          1.0
        ],
        "metallicFactor": 0.1,
        "roughnessFactor": 0.9
      },
      "name": "Marc_Wrist",
      "doubleSided": true
    },
    {
      "pbrMetallicRoughness": {
        "baseColorTexture": {
          "index": 0
        },
        "metallicFactor": 0.1,
        "roughnessFactor": 0.9
      },
      "name": "[Polished Concrete New]2",
      "doubleSided": true
    },
    {
      "pbrMetallicRoughness": {
        "baseColorTexture": {
          "index": 1
        },
        "metallicFactor": 0.1,
        "roughnessFactor": 0.9
      },
      "name": "材料24",
      "doubleSided": true
    }
  ],
  "images": [
    {
      "bufferView": 0,
      "mimeType": "image/jpeg"
    },
    {
      "bufferView": 1,
      "mimeType": "image/jpeg"
    }
  ],
  "textures": [
    {
      "source": 0,
      "sampler": 0
    },
    {
      "source": 1,
      "sampler": 0
    }
  ],
  "meshes": [
    {
      "primitives": [
        {
          "attributes": {
            "POSITION": 0,
            "NORMAL": 1
          },
          "indices": 5,
          "mode": 4,
          "material": 0
        },
        {
          "attributes": {
            "POSITION": 2,
            "NORMAL": 3,
            "TEXCOORD_0": 4
          },
          "indices": 6,
          "mode": 4,
          "material": 1
        },
        {
          "attributes": {
            "POSITION": 2,
            "NORMAL": 3,
            "TEXCOORD_0": 4
          },
          "indices": 7,
          "mode": 4,
          "material": 2
        }
      ]
    }
  ],
  "accessors": [
    {
      "bufferView": 2,
      "componentType": 5126,
      "count": 366,
      "type": "VEC3",
      "min": [
        -20.432186094546385,
        -1.9790226937071165e-14,
        -12.03571702085707
      ],
      "max": [
        20.43218609454646,
        2.520000000000006,
        12.035717020857122
      ]
    },
    {
      "bufferView": 3,
      "componentType": 5126,
      "count": 366,
      "type": "VEC3",
      "min": [
        -0.9292403681678136,
        -1.0,
        -0.9292403681678418
      ],
      "max": [
        0.9292403681678136,
        1.0,
        0.9292403681678232
      ]
    },
    {
      "bufferView": 4,
      "componentType": 5126,
      "count": 356,
      "type": "VEC3",
      "min": [
        -20.4419068125239,
        -1.9790226937071165e-14,
        -12.060164858845667
      ],
      "max": [
        20.441906812523975,
        4.333431017450657,
        12.060164858845717
      ]
    },
    {
      "bufferView": 5,
      "componentType": 5126,
      "count": 356,
      "type": "VEC3",
      "min": [
        -0.9292403681678154,
        -1.0,
        -0.9292403681678278
      ],
      "max": [
        0.9292403681678136,
        1.0,
        0.9292403681678418
      ]
    },
    {
      "bufferView": 6,
      "componentType": 5126,
      "count": 356,
      "type": "VEC2",
      "min": [
        -49.98592141332071,
        -36.63467982546132
      ],
      "max": [
        49.98592141332071,
        10.762276565836403
      ]
    },
    {
      "bufferView": 7,
      "componentType": 5123,
      "count": 576,
      "type": "SCALAR"
    },
    {
      "bufferView": 8,
      "componentType": 5123,
      "count": 984,
      "type": "SCALAR"
    },
    {
      "bufferView": 8,
      "componentType": 5123,
      "count": 72,
      "type": "SCALAR",
      "byteOffset": 1968
    }
  ],
  "bufferViews": [
    {
      "buffer": 0,
      "byteLength": 14768
    },
    {
      "buffer": 0,
      "byteOffset": 14768,
      "byteLength": 8256
    },
    {
      "buffer": 0,
      "byteOffset": 23028,
      "byteLength": 4392,
      "target": 34962,
      "byteStride": 12
    },
    {
      "buffer": 0,
      "byteOffset": 27420,
      "byteLength": 4392,
      "target": 34962,
      "byteStride": 12
    },
    {
      "buffer": 0,
      "byteOffset": 31812,
      "byteLength": 4272,
      "target": 34962,
      "byteStride": 12
    },
    {
      "buffer": 0,
      "byteOffset": 36084,
      "byteLength": 4272,
      "target": 34962,
      "byteStride": 12
    },
    {
      "buffer": 0,
      "byteOffset": 40360,
      "byteLength": 2848,
      "target": 34962,
      "byteStride": 8
    },
    {
      "buffer": 0,
      "byteOffset": 43208,
      "byteLength": 1152,
      "target": 34963
    },
    {
      "buffer": 0,
      "byteOffset": 44360,
      "byteLength": 2112,
      "target": 34963
    }
  ],
  "buffers": [
    {
      "uri": "data:application/octet-stream;base64,",
      "byteLength": 46472
    }
  ]
}