{
  "asset": {
    "version": "2.0",
    "generator": "Sketchup glTF Exporter v1.2.6 by Centaur"
  },
  "scene": 0,
  "scenes": [
    {
      "nodes": [
        0
      ]
    }
  ],
  "samplers": [
    {
    }
  ],
  "nodes": [
    {
      "name": "root",
      "children": [
        1
      ]
    },
    {
      "children": [
        2
      ]
    },
    {
      "name": "M棟(修正)",
      "mesh": 0
    }
  ],
  "materials": [
    {
      "pbrMetallicRoughness": {
        "baseColorTexture": {
          "index": 0
        },
        "metallicFactor": 0.1,
        "roughnessFactor": 0.9
      },
      "name": "灰泥白覆面"
    },
    {
      "pbrMetallicRoughness": {
        "baseColorTexture": {
          "index": 1
        },
        "metallicFactor": 0.1,
        "roughnessFactor": 0.9
      },
      "name": "材料23"
    },
    {
      "pbrMetallicRoughness": {
        "baseColorFactor": [
          0.2176,
          0.2176,
          0.2176,
          1.0
        ],
        "metallicFactor": 0.1,
        "roughnessFactor": 0.9
      },
      "name": "default material",
      "doubleSided": true
    },
    {
      "pbrMetallicRoughness": {
        "baseColorFactor": [
          1.0,
          0.5295,
          0.0,
          1.0
        ],
        "metallicFactor": 0.1,
        "roughnessFactor": 0.9
      },
      "name": "顏色 D05"
    },
    {
      "pbrMetallicRoughness": {
        "baseColorFactor": [
          0.1332,
          0.6121,
          0.0,
          1.0
        ],
        "metallicFactor": 0.1,
        "roughnessFactor": 0.9
      },
      "name": "顏色 F06"
    },
    {
      "pbrMetallicRoughness": {
        "baseColorTexture": {
          "index": 2
        },
        "metallicFactor": 0.1,
        "roughnessFactor": 0.9
      },
      "name": "生銹的金屬"
    },
    {
      "pbrMetallicRoughness": {
        "baseColorTexture": {
          "index": 3
        },
        "metallicFactor": 0.1,
        "roughnessFactor": 0.9
      },
      "name": "舊柏油路 01"
    },
    {
      "pbrMetallicRoughness": {
        "baseColorTexture": {
          "index": 4
        },
        "metallicFactor": 0.1,
        "roughnessFactor": 0.9
      },
      "name": "新的柏油路"
    },
    {
      "pbrMetallicRoughness": {
        "baseColorTexture": {
          "index": 5
        },
        "metallicFactor": 0.1,
        "roughnessFactor": 0.9
      },
      "name": "材料19"
    },
    {
      "pbrMetallicRoughness": {
        "baseColorTexture": {
          "index": 6
        },
        "metallicFactor": 0.1,
        "roughnessFactor": 0.9
      },
      "name": "材料54"
    },
    {
      "pbrMetallicRoughness": {
        "baseColorTexture": {
          "index": 7
        },
        "metallicFactor": 0.1,
        "roughnessFactor": 0.9
      },
      "name": "粗獷金屬"
    }
  ],
  "images": [
    {
      "bufferView": 0,
      "mimeType": "image/jpeg"
    },
    {
      "bufferView": 1,
      "mimeType": "image/jpeg"
    },
    {
      "bufferView": 2,
      "mimeType": "image/jpeg"
    },
    {
      "bufferView": 3,
      "mimeType": "image/jpeg"
    },
    {
      "bufferView": 4,
      "mimeType": "image/jpeg"
    },
    {
      "bufferView": 5,
      "mimeType": "image/jpeg"
    },
    {
      "bufferView": 6,
      "mimeType": "image/jpeg"
    },
    {
      "bufferView": 7,
      "mimeType": "image/jpeg"
    }
  ],
  "textures": [
    {
      "source": 0,
      "sampler": 0
    },
    {
      "source": 1,
      "sampler": 0
    },
    {
      "source": 2,
      "sampler": 0
    },
    {
      "source": 3,
      "sampler": 0
    },
    {
      "source": 4,
      "sampler": 0
    },
    {
      "source": 5,
      "sampler": 0
    },
    {
      "source": 6,
      "sampler": 0
    },
    {
      "source": 7,
      "sampler": 0
    }
  ],
  "meshes": [
    {
      "primitives": [
        {
          "attributes": {
            "POSITION": 2,
            "NORMAL": 3,
            "TEXCOORD_0": 4
          },
          "indices": 5,
          "mode": 4,
          "material": 0
        },
        {
          "attributes": {
            "POSITION": 2,
            "NORMAL": 3,
            "TEXCOORD_0": 4
          },
          "indices": 6,
          "mode": 4,
          "material": 1
        },
        {
          "attributes": {
            "POSITION": 0,
            "NORMAL": 1
          },
          "indices": 7,
          "mode": 4,
          "material": 2
        },
        {
          "attributes": {
            "POSITION": 0,
            "NORMAL": 1
          },
          "indices": 8,
          "mode": 4,
          "material": 3
        },
        {
          "attributes": {
            "POSITION": 0,
            "NORMAL": 1
          },
          "indices": 9,
          "mode": 4,
          "material": 4
        },
        {
          "attributes": {
            "POSITION": 2,
            "NORMAL": 3,
            "TEXCOORD_0": 4
          },
          "indices": 10,
          "mode": 4,
          "material": 5
        },
        {
          "attributes": {
            "POSITION": 2,
            "NORMAL": 3,
            "TEXCOORD_0": 4
          },
          "indices": 11,
          "mode": 4,
          "material": 6
        },
        {
          "attributes": {
            "POSITION": 2,
            "NORMAL": 3,
            "TEXCOORD_0": 4
          },
          "indices": 12,
          "mode": 4,
          "material": 7
        },
        {
          "attributes": {
            "POSITION": 2,
            "NORMAL": 3,
            "TEXCOORD_0": 4
          },
          "indices": 13,
          "mode": 4,
          "material": 8
        },
        {
          "attributes": {
            "POSITION": 2,
            "NORMAL": 3,
            "TEXCOORD_0": 4
          },
          "indices": 14,
          "mode": 4,
          "material": 9
        },
        {
          "attributes": {
            "POSITION": 2,
            "NORMAL": 3,
            "TEXCOORD_0": 4
          },
          "indices": 15,
          "mode": 4,
          "material": 10
        }
      ]
    }
  ],
  "accessors": [
    {
      "bufferView": 8,
      "componentType": 5126,
      "count": 4016,
      "type": "VEC3",
      "min": [
        -11.343603418784436,
        9.153424712412819e-15,
        -9.750967254585543
      ],
      "max": [
        12.151735042429735,
        3.900000000000167,
        12.10310046794671
      ]
    },
    {
      "bufferView": 9,
      "componentType": 5126,
      "count": 4016,
      "type": "VEC3",
      "min": [
        -0.9367984227884153,
        -1.0,
        -0.9367984227884697
      ],
      "max": [
        0.9367984227883671,
        1.0,
        0.9367984227884202
      ]
    },
    {
      "bufferView": 10,
      "componentType": 5126,
      "count": 1052,
      "type": "VEC3",
      "min": [
        -11.343603418784436,
        9.153424712412819e-15,
        -9.750967254585543
      ],
      "max": [
        12.151735042429735,
        3.5000000000000213,
        12.103100467946716
      ]
    },
    {
      "bufferView": 11,
      "componentType": 5126,
      "count": 1052,
      "type": "VEC3",
      "min": [
        -0.9367984227882239,
        -1.0,
        -0.9367984227882244
      ],
      "max": [
        0.9367984227882235,
        1.0,
        0.9367984227882233
      ]
    },
    {
      "bufferView": 12,
      "componentType": 5126,
      "count": 1052,
      "type": "VEC2",
      "min": [
        -44.400699912511,
        -38.80752405949281
      ],
      "max": [
        65.62500000000011,
        10.842519685039179
      ]
    },
    {
      "bufferView": 14,
      "componentType": 5123,
      "count": 2052,
      "type": "SCALAR"
    },
    {
      "bufferView": 14,
      "componentType": 5123,
      "count": 171,
      "type": "SCALAR",
      "byteOffset": 4104
    },
    {
      "bufferView": 13,
      "componentType": 5123,
      "count": 2169,
      "type": "SCALAR"
    },
    {
      "bufferView": 13,
      "componentType": 5123,
      "count": 5058,
      "type": "SCALAR",
      "byteOffset": 4338
    },
    {
      "bufferView": 13,
      "componentType": 5123,
      "count": 24,
      "type": "SCALAR",
      "byteOffset": 14454
    },
    {
      "bufferView": 14,
      "componentType": 5123,
      "count": 144,
      "type": "SCALAR",
      "byteOffset": 4446
    },
    {
      "bufferView": 14,
      "componentType": 5123,
      "count": 18,
      "type": "SCALAR",
      "byteOffset": 4734
    },
    {
      "bufferView": 14,
      "componentType": 5123,
      "count": 12,
      "type": "SCALAR",
      "byteOffset": 4770
    },
    {
      "bufferView": 14,
      "componentType": 5123,
      "count": 90,
      "type": "SCALAR",
      "byteOffset": 4794
    },
    {
      "bufferView": 14,
      "componentType": 5123,
      "count": 9,
      "type": "SCALAR",
      "byteOffset": 4974
    },
    {
      "bufferView": 14,
      "componentType": 5123,
      "count": 48,
      "type": "SCALAR",
      "byteOffset": 4992
    }
  ],
  "bufferViews": [
    {
      "buffer": 0,
      "byteLength": 15580
    },
    {
      "buffer": 0,
      "byteOffset": 15580,
      "byteLength": 164821
    },
    {
      "buffer": 0,
      "byteOffset": 180401,
      "byteLength": 15228
    },
    {
      "buffer": 0,
      "byteOffset": 195629,
      "byteLength": 51901
    },
    {
      "buffer": 0,
      "byteOffset": 247530,
      "byteLength": 59980
    },
    {
      "buffer": 0,
      "byteOffset": 307510,
      "byteLength": 146777
    },
    {
      "buffer": 0,
      "byteOffset": 454287,
      "byteLength": 26466
    },
    {
      "buffer": 0,
      "byteOffset": 480753,
      "byteLength": 2032
    },
    {
      "buffer": 0,
      "byteOffset": 482796,
      "byteLength": 48192,
      "target": 34962,
      "byteStride": 12
    },
    {
      "buffer": 0,
      "byteOffset": 530988,
      "byteLength": 48192,
      "target": 34962,
      "byteStride": 12
    },
    {
      "buffer": 0,
      "byteOffset": 579180,
      "byteLength": 12624,
      "target": 34962,
      "byteStride": 12
    },
    {
      "buffer": 0,
      "byteOffset": 591804,
      "byteLength": 12624,
      "target": 34962,
      "byteStride": 12
    },
    {
      "buffer": 0,
      "byteOffset": 604432,
      "byteLength": 8416,
      "target": 34962,
      "byteStride": 8
    },
    {
      "buffer": 0,
      "byteOffset": 612848,
      "byteLength": 14502,
      "target": 34963
    },
    {
      "buffer": 0,
      "byteOffset": 627350,
      "byteLength": 5088,
      "target": 34963
    }
  ],
  "buffers": [
    {
      "uri": "data:application/octet-stream;base64,",
      "byteLength": 632438
    }
  ]
}