{
  "asset": {
    "version": "2.0",
    "generator": "Sketchup glTF Exporter v1.2.6 by Centaur"
  },
  "scene": 0,
  "scenes": [
    {
      "nodes": [
        0
      ]
    }
  ],
  "samplers": [
    {
    }
  ],
  "nodes": [
    {
      "name": "root",
      "children": [
        1
      ]
    },
    {
      "children": [
        2
      ]
    },
    {
      "name": "N棟",
      "mesh": 0
    }
  ],
  "materials": [
    {
      "pbrMetallicRoughness": {
        "baseColorFactor": [
          0.2176,
          0.2176,
          0.2176,
          1.0
        ],
        "metallicFactor": 0.1,
        "roughnessFactor": 0.9
      },
      "name": "default material",
      "doubleSided": true
    },
    {
      "pbrMetallicRoughness": {
        "baseColorTexture": {
          "index": 0
        },
        "metallicFactor": 0.1,
        "roughnessFactor": 0.9
      },
      "name": "新拋光的混凝土"
    },
    {
      "pbrMetallicRoughness": {
        "baseColorTexture": {
          "index": 1
        },
        "metallicFactor": 0.1,
        "roughnessFactor": 0.9
      },
      "name": "材料30"
    },
    {
      "pbrMetallicRoughness": {
        "baseColorTexture": {
          "index": 2
        },
        "metallicFactor": 0.1,
        "roughnessFactor": 0.9
      },
      "name": "生銹的金屬"
    },
    {
      "pbrMetallicRoughness": {
        "baseColorTexture": {
          "index": 3
        },
        "metallicFactor": 0.1,
        "roughnessFactor": 0.9
      },
      "name": "有紋路的金屬鋼"
    },
    {
      "pbrMetallicRoughness": {
        "baseColorTexture": {
          "index": 4
        },
        "metallicFactor": 0.1,
        "roughnessFactor": 0.9
      },
      "name": "半透明安全玻璃",
      "alphaMode": "BLEND"
    },
    {
      "pbrMetallicRoughness": {
        "baseColorTexture": {
          "index": 5
        },
        "metallicFactor": 0.1,
        "roughnessFactor": 0.9
      },
      "name": "粗獷金屬"
    }
  ],
  "images": [
    {
      "bufferView": 0,
      "mimeType": "image/jpeg"
    },
    {
      "bufferView": 1,
      "mimeType": "image/jpeg"
    },
    {
      "bufferView": 2,
      "mimeType": "image/jpeg"
    },
    {
      "bufferView": 3,
      "mimeType": "image/jpeg"
    },
    {
      "bufferView": 4,
      "mimeType": "image/jpeg"
    },
    {
      "bufferView": 5,
      "mimeType": "image/jpeg"
    }
  ],
  "textures": [
    {
      "source": 0,
      "sampler": 0
    },
    {
      "source": 1,
      "sampler": 0
    },
    {
      "source": 2,
      "sampler": 0
    },
    {
      "source": 3,
      "sampler": 0
    },
    {
      "source": 4,
      "sampler": 0
    },
    {
      "source": 5,
      "sampler": 0
    }
  ],
  "meshes": [
    {
      "primitives": [
        {
          "attributes": {
            "POSITION": 0,
            "NORMAL": 1
          },
          "indices": 5,
          "mode": 4,
          "material": 0
        },
        {
          "attributes": {
            "POSITION": 2,
            "NORMAL": 3,
            "TEXCOORD_0": 4
          },
          "indices": 6,
          "mode": 4,
          "material": 1
        },
        {
          "attributes": {
            "POSITION": 2,
            "NORMAL": 3,
            "TEXCOORD_0": 4
          },
          "indices": 7,
          "mode": 4,
          "material": 2
        },
        {
          "attributes": {
            "POSITION": 2,
            "NORMAL": 3,
            "TEXCOORD_0": 4
          },
          "indices": 8,
          "mode": 4,
          "material": 3
        },
        {
          "attributes": {
            "POSITION": 2,
            "NORMAL": 3,
            "TEXCOORD_0": 4
          },
          "indices": 9,
          "mode": 4,
          "material": 4
        },
        {
          "attributes": {
            "POSITION": 2,
            "NORMAL": 3,
            "TEXCOORD_0": 4
          },
          "indices": 10,
          "mode": 4,
          "material": 5
        },
        {
          "attributes": {
            "POSITION": 2,
            "NORMAL": 3,
            "TEXCOORD_0": 4
          },
          "indices": 11,
          "mode": 4,
          "material": 6
        }
      ]
    }
  ],
  "accessors": [
    {
      "bufferView": 6,
      "componentType": 5126,
      "count": 114,
      "type": "VEC3",
      "min": [
        -9.995135082772553,
        -4.4511539177539336e-14,
        -7.880120347743154
      ],
      "max": [
        9.995135082772475,
        4.921249999999961,
        7.880120347743146
      ]
    },
    {
      "bufferView": 7,
      "componentType": 5126,
      "count": 114,
      "type": "VEC3",
      "min": [
        -0.938841258289757,
        -1.0,
        -0.938841258289757
      ],
      "max": [
        0.938841258289757,
        1.0,
        0.938841258289757
      ]
    },
    {
      "bufferView": 8,
      "componentType": 5126,
      "count": 118,
      "type": "VEC3",
      "min": [
        -9.995135082772553,
        -4.4511539177539336e-14,
        -7.880120347743154
      ],
      "max": [
        9.995135082772475,
        4.921249999999961,
        7.880120347743146
      ]
    },
    {
      "bufferView": 9,
      "componentType": 5126,
      "count": 118,
      "type": "VEC3",
      "min": [
        -0.938841258289757,
        -1.0,
        -0.938841258289757
      ],
      "max": [
        0.938841258289757,
        1.0,
        0.938841258289757
      ]
    },
    {
      "bufferView": 10,
      "componentType": 5126,
      "count": 118,
      "type": "VEC2",
      "min": [
        -11.591999999999999,
        -17.2976474383413
      ],
      "max": [
        39.19865842048199,
        2.663080445733356
      ]
    },
    {
      "bufferView": 11,
      "componentType": 5121,
      "count": 204,
      "type": "SCALAR"
    },
    {
      "bufferView": 12,
      "componentType": 5121,
      "count": 132,
      "type": "SCALAR"
    },
    {
      "bufferView": 12,
      "componentType": 5121,
      "count": 12,
      "type": "SCALAR",
      "byteOffset": 132
    },
    {
      "bufferView": 12,
      "componentType": 5121,
      "count": 24,
      "type": "SCALAR",
      "byteOffset": 144
    },
    {
      "bufferView": 12,
      "componentType": 5121,
      "count": 18,
      "type": "SCALAR",
      "byteOffset": 168
    },
    {
      "bufferView": 12,
      "componentType": 5121,
      "count": 12,
      "type": "SCALAR",
      "byteOffset": 186
    },
    {
      "bufferView": 12,
      "componentType": 5121,
      "count": 42,
      "type": "SCALAR",
      "byteOffset": 198
    }
  ],
  "bufferViews": [
    {
      "buffer": 0,
      "byteLength": 14777
    },
    {
      "buffer": 0,
      "byteOffset": 14777,
      "byteLength": 146777
    },
    {
      "buffer": 0,
      "byteOffset": 161554,
      "byteLength": 15228
    },
    {
      "buffer": 0,
      "byteOffset": 176782,
      "byteLength": 7763
    },
    {
      "buffer": 0,
      "byteOffset": 184545,
      "byteLength": 5526
    },
    {
      "buffer": 0,
      "byteOffset": 190071,
      "byteLength": 2032
    },
    {
      "buffer": 0,
      "byteOffset": 192108,
      "byteLength": 1368,
      "target": 34962,
      "byteStride": 12
    },
    {
      "buffer": 0,
      "byteOffset": 193476,
      "byteLength": 1368,
      "target": 34962,
      "byteStride": 12
    },
    {
      "buffer": 0,
      "byteOffset": 194844,
      "byteLength": 1416,
      "target": 34962,
      "byteStride": 12
    },
    {
      "buffer": 0,
      "byteOffset": 196260,
      "byteLength": 1416,
      "target": 34962,
      "byteStride": 12
    },
    {
      "buffer": 0,
      "byteOffset": 197680,
      "byteLength": 944,
      "target": 34962,
      "byteStride": 8
    },
    {
      "buffer": 0,
      "byteOffset": 198624,
      "byteLength": 204,
      "target": 34963
    },
    {
      "buffer": 0,
      "byteOffset": 198828,
      "byteLength": 240,
      "target": 34963
    }
  ],
  "buffers": [
    {
      "uri": "data:application/octet-stream;base64,",
      "byteLength": 199068
    }
  ]
}