{
  "asset": {
    "version": "2.0",
    "generator": "Sketchup glTF Exporter v1.2.6 by Centaur"
  },
  "scene": 0,
  "scenes": [
    {
      "nodes": [
        0
      ]
    }
  ],
  "samplers": [
    {
    }
  ],
  "nodes": [
    {
      "name": "root",
      "children": [
        1
      ]
    },
    {
      "children": [
        2
      ]
    },
    {
      "name": "O棟(修)",
      "mesh": 0
    }
  ],
  "materials": [
    {
      "pbrMetallicRoughness": {
        "baseColorFactor": [
          0.1275,
          0.1332,
          0.1905,
          1.0
        ],
        "metallicFactor": 0.1,
        "roughnessFactor": 0.9
      },
      "name": "Marc_Shoes",
      "doubleSided": true
    }
  ],
  "meshes": [
    {
      "primitives": [
        {
          "attributes": {
            "POSITION": 0,
            "NORMAL": 1
          },
          "indices": 2,
          "mode": 4,
          "material": 0
        }
      ]
    }
  ],
  "accessors": [
    {
      "bufferView": 0,
      "componentType": 5126,
      "count": 418,
      "type": "VEC3",
      "min": [
        -15.518737566511534,
        -0.002403001437824976,
        -11.0414464755799
      ],
      "max": [
        15.232861123550023,
        7.983500794891791,
        11.089274973408317
      ]
    },
    {
      "bufferView": 1,
      "componentType": 5126,
      "count": 418,
      "type": "VEC3",
      "min": [
        -0.9403198836959984,
        -1.0,
        -0.9403198836959963
      ],
      "max": [
        0.9403198836959964,
        1.0,
        0.9403198836959963
      ]
    },
    {
      "bufferView": 2,
      "componentType": 5123,
      "count": 834,
      "type": "SCALAR"
    }
  ],
  "bufferViews": [
    {
      "buffer": 0,
      "byteLength": 5016,
      "target": 34962,
      "byteStride": 12
    },
    {
      "buffer": 0,
      "byteOffset": 5016,
      "byteLength": 5016,
      "target": 34962,
      "byteStride": 12
    },
    {
      "buffer": 0,
      "byteOffset": 10032,
      "byteLength": 1668,
      "target": 34963
    }
  ],
  "buffers": [
    {
      "uri": "data:application/octet-stream;base64,",
      "byteLength": 11700
    }
  ]
}