{
  "asset": {
    "version": "2.0",
    "generator": "Sketchup glTF Exporter v1.2.6 by Centaur"
  },
  "scene": 0,
  "scenes": [
    {
      "nodes": [
        0
      ]
    }
  ],
  "samplers": [
    {
    }
  ],
  "nodes": [
    {
      "name": "root",
      "children": [
        1
      ]
    },
    {
      "children": [
        2
      ]
    },
    {
      "name": "P棟(修)",
      "children": [
        3,
        4
      ],
      "mesh": 2
    },
    {
      "name": "元件#29",
      "mesh": 0
    },
    {
      "name": "元件#29",
      "mesh": 1
    }
  ],
  "materials": [
    {
      "pbrMetallicRoughness": {
        "baseColorFactor": [
          0.1275,
          0.1332,
          0.1905,
          1.0
        ],
        "metallicFactor": 0.1,
        "roughnessFactor": 0.9
      },
      "name": "Marc_Shoes",
      "doubleSided": true
    }
  ],
  "meshes": [
    {
      "primitives": [
        {
          "attributes": {
            "POSITION": 0,
            "NORMAL": 1
          },
          "indices": 2,
          "mode": 4,
          "material": 0
        }
      ]
    },
    {
      "primitives": [
        {
          "attributes": {
            "POSITION": 0,
            "NORMAL": 1
          },
          "indices": 3,
          "mode": 4,
          "material": 0
        }
      ]
    },
    {
      "primitives": [
        {
          "attributes": {
            "POSITION": 0,
            "NORMAL": 1
          },
          "indices": 4,
          "mode": 4,
          "material": 0
        }
      ]
    }
  ],
  "accessors": [
    {
      "bufferView": 0,
      "componentType": 5126,
      "count": 541,
      "type": "VEC3",
      "min": [
        -16.64713947383285,
        -6.622196536595119e-16,
        -13.003755260219762
      ],
      "max": [
        16.04826705237671,
        6.950000000000007,
        13.003755260219489
      ]
    },
    {
      "bufferView": 1,
      "componentType": 5126,
      "count": 541,
      "type": "VEC3",
      "min": [
        -0.9403198836959845,
        -1.0,
        -0.9403198836959845
      ],
      "max": [
        0.9403198836959845,
        1.0,
        0.9403198836959843
      ]
    },
    {
      "bufferView": 2,
      "componentType": 5123,
      "count": 210,
      "type": "SCALAR"
    },
    {
      "bufferView": 2,
      "componentType": 5123,
      "count": 210,
      "type": "SCALAR",
      "byteOffset": 420
    },
    {
      "bufferView": 2,
      "componentType": 5123,
      "count": 606,
      "type": "SCALAR",
      "byteOffset": 840
    }
  ],
  "bufferViews": [
    {
      "buffer": 0,
      "byteLength": 6492,
      "target": 34962,
      "byteStride": 12
    },
    {
      "buffer": 0,
      "byteOffset": 6492,
      "byteLength": 6492,
      "target": 34962,
      "byteStride": 12
    },
    {
      "buffer": 0,
      "byteOffset": 12984,
      "byteLength": 2052,
      "target": 34963
    }
  ],
  "buffers": [
    {
      "uri": "data:application/octet-stream;base64,",
      "byteLength": 15036
    }
  ]
}