{
  "asset": {
    "version": "2.0",
    "generator": "Sketchup glTF Exporter v1.2.6 by Centaur"
  },
  "scene": 0,
  "scenes": [
    {
      "nodes": [
        0
      ]
    }
  ],
  "samplers": [
    {
    }
  ],
  "nodes": [
    {
      "name": "root",
      "children": [
        1
      ]
    },
    {
      "children": [
        2
      ]
    },
    {
      "name": "Q棟",
      "mesh": 0
    }
  ],
  "materials": [
    {
      "pbrMetallicRoughness": {
        "baseColorFactor": [
          0.1275,
          0.1332,
          0.1905,
          1.0
        ],
        "metallicFactor": 0.1,
        "roughnessFactor": 0.9
      },
      "name": "Marc_Shoes",
      "doubleSided": true
    }
  ],
  "meshes": [
    {
      "primitives": [
        {
          "attributes": {
            "POSITION": 0,
            "NORMAL": 1
          },
          "indices": 2,
          "mode": 4,
          "material": 0
        }
      ]
    }
  ],
  "accessors": [
    {
      "bufferView": 0,
      "componentType": 5126,
      "count": 76,
      "type": "VEC3",
      "min": [
        -12.659088730980743,
        2.431940299523797e-15,
        -8.538536648542719
      ],
      "max": [
        12.659088730980606,
        6.96000000000001,
        8.538536648542802
      ]
    },
    {
      "bufferView": 1,
      "componentType": 5126,
      "count": 76,
      "type": "VEC3",
      "min": [
        -0.9403198836966066,
        -1.0,
        -0.9403198836966066
      ],
      "max": [
        0.9403198836966066,
        0.9757816852184839,
        0.9403198836966066
      ]
    },
    {
      "bufferView": 2,
      "componentType": 5121,
      "count": 138,
      "type": "SCALAR"
    }
  ],
  "bufferViews": [
    {
      "buffer": 0,
      "byteLength": 912,
      "target": 34962,
      "byteStride": 12
    },
    {
      "buffer": 0,
      "byteOffset": 912,
      "byteLength": 912,
      "target": 34962,
      "byteStride": 12
    },
    {
      "buffer": 0,
      "byteOffset": 1824,
      "byteLength": 138,
      "target": 34963
    }
  ],
  "buffers": [
    {
      "uri": "data:application/octet-stream;base64,",
      "byteLength": 1962
    }
  ]
}