{
  "asset": {
    "version": "2.0",
    "generator": "Sketchup glTF Exporter v1.2.6 by Centaur"
  },
  "scene": 0,
  "scenes": [
    {
      "nodes": [
        0
      ]
    }
  ],
  "samplers": [
    {
    }
  ],
  "nodes": [
    {
      "name": "root",
      "children": [
        1,
        2
      ]
    },
    {
      "name": "Helen"
    },
    {
      "name": "S棟",
      "children": [
        3,
        9,
        10,
        11,
        17,
        18,
        19,
        20
      ]
    },
    {
      "children": [
        4,
        8
      ]
    },
    {
      "children": [
        5,
        6,
        7
      ],
      "mesh": 3
    },
    {
      "mesh": 0
    },
    {
      "mesh": 1
    },
    {
      "mesh": 2
    },
    {
      "mesh": 4
    },
    {
      "mesh": 5
    },
    {
      "mesh": 6
    },
    {
      "children": [
        12,
        16
      ]
    },
    {
      "children": [
        13,
        14,
        15
      ],
      "mesh": 10
    },
    {
      "mesh": 7
    },
    {
      "mesh": 8
    },
    {
      "mesh": 9
    },
    {
      "mesh": 11
    },
    {
      "mesh": 12
    },
    {
      "mesh": 13
    },
    {
      "mesh": 14
    },
    {
      "mesh": 15
    }
  ],
  "materials": [
    {
      "pbrMetallicRoughness": {
        "baseColorFactor": [
          1.0,
          1.0,
          1.0,
          1.0
        ],
        "metallicFactor": 0.0,
        "roughnessFactor": 0.7
      },
      "name": "顏色 M00",
      "doubleSided": true
    },
    {
      "pbrMetallicRoughness": {
        "baseColorFactor": [
          0.0316,
          0.0066,
          0.0,
          1.0
        ],
        "metallicFactor": 0.1,
        "roughnessFactor": 0.9
      },
      "name": "顏色 C08",
      "doubleSided": true
    },
    {
      "pbrMetallicRoughness": {
        "baseColorTexture": {
          "index": 0
        },
        "metallicFactor": 0.1,
        "roughnessFactor": 0.9
      },
      "name": "材料15",
      "alphaMode": "BLEND"
    },
    {
      "pbrMetallicRoughness": {
        "baseColorTexture": {
          "index": 1
        },
        "metallicFactor": 0.1,
        "roughnessFactor": 0.9
      },
      "name": "[Formica Blue]1",
      "doubleSided": true
    },
    {
      "pbrMetallicRoughness": {
        "baseColorFactor": [
          0.2176,
          0.2176,
          0.2176,
          1.0
        ],
        "metallicFactor": 0.1,
        "roughnessFactor": 0.9
      },
      "name": "default material",
      "doubleSided": true
    },
    {
      "pbrMetallicRoughness": {
        "baseColorTexture": {
          "index": 2
        },
        "metallicFactor": 0.1,
        "roughnessFactor": 0.9
      },
      "name": "鐵絲網",
      "doubleSided": true
    },
    {
      "pbrMetallicRoughness": {
        "baseColorTexture": {
          "index": 3
        },
        "metallicFactor": 0.1,
        "roughnessFactor": 0.9
      },
      "name": "材料64"
    },
    {
      "pbrMetallicRoughness": {
        "baseColorTexture": {
          "index": 4
        },
        "metallicFactor": 0.1,
        "roughnessFactor": 0.9
      },
      "name": "新的柏油路"
    },
    {
      "pbrMetallicRoughness": {
        "baseColorFactor": [
          0.4098,
          0.4098,
          0.4098,
          1.0
        ],
        "metallicFactor": 0.0,
        "roughnessFactor": 0.7
      },
      "name": "顏色 M03",
      "doubleSided": true
    }
  ],
  "images": [
    {
      "bufferView": 0,
      "mimeType": "image/png"
    },
    {
      "bufferView": 1,
      "mimeType": "image/jpeg"
    },
    {
      "bufferView": 2,
      "mimeType": "image/png"
    },
    {
      "bufferView": 3,
      "mimeType": "image/jpeg"
    },
    {
      "bufferView": 4,
      "mimeType": "image/jpeg"
    }
  ],
  "textures": [
    {
      "source": 0,
      "sampler": 0
    },
    {
      "source": 1,
      "sampler": 0
    },
    {
      "source": 2,
      "sampler": 0
    },
    {
      "source": 3,
      "sampler": 0
    },
    {
      "source": 4,
      "sampler": 0
    }
  ],
  "meshes": [
    {
      "primitives": [
        {
          "attributes": {
            "POSITION": 0,
            "NORMAL": 1
          },
          "indices": 5,
          "mode": 4,
          "material": 1
        }
      ]
    },
    {
      "primitives": [
        {
          "attributes": {
            "POSITION": 0,
            "NORMAL": 1
          },
          "indices": 6,
          "mode": 4,
          "material": 1
        }
      ]
    },
    {
      "primitives": [
        {
          "attributes": {
            "POSITION": 0,
            "NORMAL": 1
          },
          "indices": 7,
          "mode": 4,
          "material": 1
        }
      ]
    },
    {
      "primitives": [
        {
          "attributes": {
            "POSITION": 0,
            "NORMAL": 1
          },
          "indices": 8,
          "mode": 4,
          "material": 0
        }
      ]
    },
    {
      "primitives": [
        {
          "attributes": {
            "POSITION": 2,
            "NORMAL": 3,
            "TEXCOORD_0": 4
          },
          "indices": 9,
          "mode": 4,
          "material": 2
        }
      ]
    },
    {
      "primitives": [
        {
          "attributes": {
            "POSITION": 2,
            "NORMAL": 3,
            "TEXCOORD_0": 4
          },
          "indices": 10,
          "mode": 4,
          "material": 3
        },
        {
          "attributes": {
            "POSITION": 0,
            "NORMAL": 1
          },
          "indices": 11,
          "mode": 4,
          "material": 4
        },
        {
          "attributes": {
            "POSITION": 2,
            "NORMAL": 3,
            "TEXCOORD_0": 4
          },
          "indices": 12,
          "mode": 4,
          "material": 5
        }
      ]
    },
    {
      "primitives": [
        {
          "attributes": {
            "POSITION": 2,
            "NORMAL": 3,
            "TEXCOORD_0": 4
          },
          "indices": 13,
          "mode": 4,
          "material": 6
        },
        {
          "attributes": {
            "POSITION": 2,
            "NORMAL": 3,
            "TEXCOORD_0": 4
          },
          "indices": 14,
          "mode": 4,
          "material": 7
        },
        {
          "attributes": {
            "POSITION": 0,
            "NORMAL": 1
          },
          "indices": 15,
          "mode": 4,
          "material": 4
        }
      ]
    },
    {
      "primitives": [
        {
          "attributes": {
            "POSITION": 0,
            "NORMAL": 1
          },
          "indices": 16,
          "mode": 4,
          "material": 1
        }
      ]
    },
    {
      "primitives": [
        {
          "attributes": {
            "POSITION": 0,
            "NORMAL": 1
          },
          "indices": 17,
          "mode": 4,
          "material": 1
        }
      ]
    },
    {
      "primitives": [
        {
          "attributes": {
            "POSITION": 0,
            "NORMAL": 1
          },
          "indices": 18,
          "mode": 4,
          "material": 1
        }
      ]
    },
    {
      "primitives": [
        {
          "attributes": {
            "POSITION": 0,
            "NORMAL": 1
          },
          "indices": 19,
          "mode": 4,
          "material": 0
        }
      ]
    },
    {
      "primitives": [
        {
          "attributes": {
            "POSITION": 2,
            "NORMAL": 3,
            "TEXCOORD_0": 4
          },
          "indices": 20,
          "mode": 4,
          "material": 2
        }
      ]
    },
    {
      "primitives": [
        {
          "attributes": {
            "POSITION": 2,
            "NORMAL": 3,
            "TEXCOORD_0": 4
          },
          "indices": 21,
          "mode": 4,
          "material": 3
        }
      ]
    },
    {
      "primitives": [
        {
          "attributes": {
            "POSITION": 2,
            "NORMAL": 3,
            "TEXCOORD_0": 4
          },
          "indices": 22,
          "mode": 4,
          "material": 5
        }
      ]
    },
    {
      "primitives": [
        {
          "attributes": {
            "POSITION": 2,
            "NORMAL": 3,
            "TEXCOORD_0": 4
          },
          "indices": 23,
          "mode": 4,
          "material": 6
        }
      ]
    },
    {
      "primitives": [
        {
          "attributes": {
            "POSITION": 0,
            "NORMAL": 1
          },
          "indices": 24,
          "mode": 4,
          "material": 8
        }
      ]
    }
  ],
  "accessors": [
    {
      "bufferView": 5,
      "componentType": 5126,
      "count": 1257,
      "type": "VEC3",
      "min": [
        -5.976750001876098,
        -0.001131905599897457,
        -4.392877602420785
      ],
      "max": [
        5.858326179274846,
        2.501848782000104,
        4.160278368897377
      ]
    },
    {
      "bufferView": 6,
      "componentType": 5126,
      "count": 1257,
      "type": "VEC3",
      "min": [
        -0.9979297518219727,
        -1.0,
        -0.9987606972422114
      ],
      "max": [
        0.9979297518219726,
        1.0,
        0.9987606972422114
      ]
    },
    {
      "bufferView": 7,
      "componentType": 5126,
      "count": 200,
      "type": "VEC3",
      "min": [
        -6.499596127093768,
        9.800812021907509e-14,
        -5.228139897413061
      ],
      "max": [
        6.381172304492515,
        3.0529806876001016,
        4.995540663889631
      ]
    },
    {
      "bufferView": 8,
      "componentType": 5126,
      "count": 200,
      "type": "VEC3",
      "min": [
        -0.9258705848099849,
        -1.0,
        -0.9933803306084503
      ],
      "max": [
        0.9258705848099849,
        1.0,
        0.9933803306084502
      ]
    },
    {
      "bufferView": 9,
      "componentType": 5126,
      "count": 200,
      "type": "VEC2",
      "min": [
        -5714.469197855796,
        -38.81946171738663
      ],
      "max": [
        2440.9181350860845,
        6.881339035204311
      ]
    },
    {
      "bufferView": 10,
      "componentType": 5123,
      "count": 276,
      "type": "SCALAR"
    },
    {
      "bufferView": 10,
      "componentType": 5123,
      "count": 276,
      "type": "SCALAR",
      "byteOffset": 552
    },
    {
      "bufferView": 10,
      "componentType": 5123,
      "count": 276,
      "type": "SCALAR",
      "byteOffset": 1104
    },
    {
      "bufferView": 10,
      "componentType": 5123,
      "count": 531,
      "type": "SCALAR",
      "byteOffset": 1656
    },
    {
      "bufferView": 11,
      "componentType": 5121,
      "count": 36,
      "type": "SCALAR"
    },
    {
      "bufferView": 11,
      "componentType": 5121,
      "count": 33,
      "type": "SCALAR",
      "byteOffset": 36
    },
    {
      "bufferView": 10,
      "componentType": 5123,
      "count": 78,
      "type": "SCALAR",
      "byteOffset": 2718
    },
    {
      "bufferView": 11,
      "componentType": 5121,
      "count": 27,
      "type": "SCALAR",
      "byteOffset": 69
    },
    {
      "bufferView": 11,
      "componentType": 5121,
      "count": 60,
      "type": "SCALAR",
      "byteOffset": 96
    },
    {
      "bufferView": 11,
      "componentType": 5121,
      "count": 36,
      "type": "SCALAR",
      "byteOffset": 156
    },
    {
      "bufferView": 10,
      "componentType": 5123,
      "count": 12,
      "type": "SCALAR",
      "byteOffset": 2874
    },
    {
      "bufferView": 10,
      "componentType": 5123,
      "count": 276,
      "type": "SCALAR",
      "byteOffset": 2898
    },
    {
      "bufferView": 10,
      "componentType": 5123,
      "count": 276,
      "type": "SCALAR",
      "byteOffset": 3450
    },
    {
      "bufferView": 10,
      "componentType": 5123,
      "count": 276,
      "type": "SCALAR",
      "byteOffset": 4002
    },
    {
      "bufferView": 10,
      "componentType": 5123,
      "count": 531,
      "type": "SCALAR",
      "byteOffset": 4554
    },
    {
      "bufferView": 11,
      "componentType": 5121,
      "count": 36,
      "type": "SCALAR",
      "byteOffset": 192
    },
    {
      "bufferView": 11,
      "componentType": 5121,
      "count": 33,
      "type": "SCALAR",
      "byteOffset": 228
    },
    {
      "bufferView": 11,
      "componentType": 5121,
      "count": 27,
      "type": "SCALAR",
      "byteOffset": 261
    },
    {
      "bufferView": 11,
      "componentType": 5121,
      "count": 72,
      "type": "SCALAR",
      "byteOffset": 288
    },
    {
      "bufferView": 10,
      "componentType": 5123,
      "count": 357,
      "type": "SCALAR",
      "byteOffset": 5616
    }
  ],
  "bufferViews": [
    {
      "buffer": 0,
      "byteLength": 150757
    },
    {
      "buffer": 0,
      "byteOffset": 150757,
      "byteLength": 21022
    },
    {
      "buffer": 0,
      "byteOffset": 171779,
      "byteLength": 1464
    },
    {
      "buffer": 0,
      "byteOffset": 173243,
      "byteLength": 141204
    },
    {
      "buffer": 0,
      "byteOffset": 314447,
      "byteLength": 59980
    },
    {
      "buffer": 0,
      "byteOffset": 374436,
      "byteLength": 15084,
      "target": 34962,
      "byteStride": 12
    },
    {
      "buffer": 0,
      "byteOffset": 389520,
      "byteLength": 15084,
      "target": 34962,
      "byteStride": 12
    },
    {
      "buffer": 0,
      "byteOffset": 404604,
      "byteLength": 2400,
      "target": 34962,
      "byteStride": 12
    },
    {
      "buffer": 0,
      "byteOffset": 407004,
      "byteLength": 2400,
      "target": 34962,
      "byteStride": 12
    },
    {
      "buffer": 0,
      "byteOffset": 409408,
      "byteLength": 1600,
      "target": 34962,
      "byteStride": 8
    },
    {
      "buffer": 0,
      "byteOffset": 411008,
      "byteLength": 6330,
      "target": 34963
    },
    {
      "buffer": 0,
      "byteOffset": 417338,
      "byteLength": 360,
      "target": 34963
    }
  ],
  "buffers": [
    {
      "uri": "data:application/octet-stream;base64,",
      "byteLength": 417698
    }
  ]
}