{
  "asset": {
    "version": "2.0",
    "generator": "Sketchup glTF Exporter v1.2.6 by Centaur"
  },
  "scene": 0,
  "scenes": [
    {
      "nodes": [
        0
      ]
    }
  ],
  "samplers": [
    {
    }
  ],
  "nodes": [
    {
      "name": "root",
      "children": [
        1
      ]
    },
    {
      "children": [
        2
      ]
    },
    {
      "name": "小牛",
      "children": [
        3,
        4
      ]
    },
    {
      "mesh": 0
    },
    {
      "mesh": 1
    }
  ],
  "materials": [
    {
      "pbrMetallicRoughness": {
        "baseColorTexture": {
          "index": 0
        },
        "metallicFactor": 0.1,
        "roughnessFactor": 0.9
      },
      "name": "有紋路的金屬鋼"
    },
    {
      "pbrMetallicRoughness": {
        "baseColorFactor": [
          0.2176,
          0.2176,
          0.2176,
          1.0
        ],
        "metallicFactor": 0.1,
        "roughnessFactor": 0.9
      },
      "name": "default material",
      "doubleSided": true
    },
    {
      "pbrMetallicRoughness": {
        "baseColorTexture": {
          "index": 1
        },
        "metallicFactor": 0.1,
        "roughnessFactor": 0.9
      },
      "name": "柵欄結構",
      "doubleSided": true
    },
    {
      "pbrMetallicRoughness": {
        "baseColorTexture": {
          "index": 2
        },
        "metallicFactor": 0.1,
        "roughnessFactor": 0.9
      },
      "name": "灰泥白覆面"
    }
  ],
  "images": [
    {
      "bufferView": 0,
      "mimeType": "image/jpeg"
    },
    {
      "bufferView": 1,
      "mimeType": "image/png"
    },
    {
      "bufferView": 2,
      "mimeType": "image/jpeg"
    }
  ],
  "textures": [
    {
      "source": 0,
      "sampler": 0
    },
    {
      "source": 1,
      "sampler": 0
    },
    {
      "source": 2,
      "sampler": 0
    }
  ],
  "meshes": [
    {
      "primitives": [
        {
          "attributes": {
            "POSITION": 2,
            "NORMAL": 3,
            "TEXCOORD_0": 4
          },
          "indices": 5,
          "mode": 4,
          "material": 0
        }
      ]
    },
    {
      "primitives": [
        {
          "attributes": {
            "POSITION": 0,
            "NORMAL": 1
          },
          "indices": 6,
          "mode": 4,
          "material": 1
        },
        {
          "attributes": {
            "POSITION": 2,
            "NORMAL": 3,
            "TEXCOORD_0": 4
          },
          "indices": 7,
          "mode": 4,
          "material": 2
        },
        {
          "attributes": {
            "POSITION": 2,
            "NORMAL": 3,
            "TEXCOORD_0": 4
          },
          "indices": 8,
          "mode": 4,
          "material": 3
        }
      ]
    }
  ],
  "accessors": [
    {
      "bufferView": 3,
      "componentType": 5126,
      "count": 885,
      "type": "VEC3",
      "min": [
        -13.32135771068789,
        -2.187433649297205e-14,
        -8.865518992887912
      ],
      "max": [
        13.321357710687895,
        4.260999999999993,
        8.865518992887942
      ]
    },
    {
      "bufferView": 4,
      "componentType": 5126,
      "count": 885,
      "type": "VEC3",
      "min": [
        -0.9577275922182059,
        -1.0,
        -0.9577275922182059
      ],
      "max": [
        0.9577275922182059,
        1.0,
        0.957727592218206
      ]
    },
    {
      "bufferView": 5,
      "componentType": 5126,
      "count": 94,
      "type": "VEC3",
      "min": [
        -13.321357710687892,
        -2.18144530334172e-14,
        -8.865518992887912
      ],
      "max": [
        13.321357710687892,
        5.260999999999993,
        8.86551899288794
      ]
    },
    {
      "bufferView": 6,
      "componentType": 5126,
      "count": 94,
      "type": "VEC3",
      "min": [
        -0.9577275922182059,
        -1.0,
        -0.9577275922182059
      ],
      "max": [
        0.9577275922182059,
        1.0,
        0.9577275922182059
      ]
    },
    {
      "bufferView": 7,
      "componentType": 5126,
      "count": 94,
      "type": "VEC2",
      "min": [
        -963.1889763779528,
        -962.1889763779528
      ],
      "max": [
        963.1889763779528,
        403.430576874102
      ]
    },
    {
      "bufferView": 9,
      "componentType": 5121,
      "count": 108,
      "type": "SCALAR"
    },
    {
      "bufferView": 8,
      "componentType": 5123,
      "count": 1896,
      "type": "SCALAR"
    },
    {
      "bufferView": 9,
      "componentType": 5121,
      "count": 12,
      "type": "SCALAR",
      "byteOffset": 108
    },
    {
      "bufferView": 9,
      "componentType": 5121,
      "count": 66,
      "type": "SCALAR",
      "byteOffset": 120
    }
  ],
  "bufferViews": [
    {
      "buffer": 0,
      "byteLength": 7763
    },
    {
      "buffer": 0,
      "byteOffset": 7763,
      "byteLength": 2702
    },
    {
      "buffer": 0,
      "byteOffset": 10465,
      "byteLength": 15580
    },
    {
      "buffer": 0,
      "byteOffset": 26052,
      "byteLength": 10620,
      "target": 34962,
      "byteStride": 12
    },
    {
      "buffer": 0,
      "byteOffset": 36672,
      "byteLength": 10620,
      "target": 34962,
      "byteStride": 12
    },
    {
      "buffer": 0,
      "byteOffset": 47292,
      "byteLength": 1128,
      "target": 34962,
      "byteStride": 12
    },
    {
      "buffer": 0,
      "byteOffset": 48420,
      "byteLength": 1128,
      "target": 34962,
      "byteStride": 12
    },
    {
      "buffer": 0,
      "byteOffset": 49552,
      "byteLength": 752,
      "target": 34962,
      "byteStride": 8
    },
    {
      "buffer": 0,
      "byteOffset": 50304,
      "byteLength": 3792,
      "target": 34963
    },
    {
      "buffer": 0,
      "byteOffset": 54096,
      "byteLength": 186,
      "target": 34963
    }
  ],
  "buffers": [
    {
      "uri": "data:application/octet-stream;base64,",
      "byteLength": 54282
    }
  ]
}