{
  "asset": {
    "version": "2.0",
    "generator": "Sketchup glTF Exporter v1.2.6 by Centaur"
  },
  "scene": 0,
  "scenes": [
    {
      "nodes": [
        0
      ]
    }
  ],
  "samplers": [
    {
    }
  ],
  "nodes": [
    {
      "name": "root",
      "children": [
        1
      ]
    },
    {
      "children": [
        2
      ]
    },
    {
      "name": "水塔",
      "children": [
        3
      ]
    },
    {
      "mesh": 0
    }
  ],
  "materials": [
    {
      "pbrMetallicRoughness": {
        "baseColorTexture": {
          "index": 0
        },
        "metallicFactor": 0.1,
        "roughnessFactor": 0.9
      },
      "name": "經過拋光的舊混凝土"
    }
  ],
  "images": [
    {
      "bufferView": 0,
      "mimeType": "image/jpeg"
    }
  ],
  "textures": [
    {
      "source": 0,
      "sampler": 0
    }
  ],
  "meshes": [
    {
      "primitives": [
        {
          "attributes": {
            "POSITION": 0,
            "NORMAL": 1,
            "TEXCOORD_0": 2
          },
          "indices": 3,
          "mode": 4,
          "material": 0
        }
      ]
    }
  ],
  "accessors": [
    {
      "bufferView": 1,
      "componentType": 5126,
      "count": 2694,
      "type": "VEC3",
      "min": [
        -3.4124422830015053,
        1.4224326138503376e-13,
        -3.412442283001488
      ],
      "max": [
        3.412442283001508,
        17.300000000000143,
        3.4124422830015138
      ]
    },
    {
      "bufferView": 2,
      "componentType": 5126,
      "count": 2694,
      "type": "VEC3",
      "min": [
        -0.9919890357562482,
        -1.0,
        -0.9919890357562479
      ],
      "max": [
        0.991989035756248,
        1.0,
        0.9919890357562482
      ]
    },
    {
      "bufferView": 3,
      "componentType": 5126,
      "count": 2694,
      "type": "VEC2",
      "min": [
        -9.004642530093806,
        -17.919510061242345
      ],
      "max": [
        9.00464253009381,
        1.000000000000031
      ]
    },
    {
      "bufferView": 4,
      "componentType": 5123,
      "count": 5544,
      "type": "SCALAR"
    }
  ],
  "bufferViews": [
    {
      "buffer": 0,
      "byteLength": 42181
    },
    {
      "buffer": 0,
      "byteOffset": 42192,
      "byteLength": 32328,
      "target": 34962,
      "byteStride": 12
    },
    {
      "buffer": 0,
      "byteOffset": 74520,
      "byteLength": 32328,
      "target": 34962,
      "byteStride": 12
    },
    {
      "buffer": 0,
      "byteOffset": 106848,
      "byteLength": 21552,
      "target": 34962,
      "byteStride": 8
    },
    {
      "buffer": 0,
      "byteOffset": 128400,
      "byteLength": 11088,
      "target": 34963
    }
  ],
  "buffers": [
    {
      "uri": "data:application/octet-stream;base64,",
      "byteLength": 139488
    }
  ]
}