{
  "asset": {
    "version": "2.0",
    "generator": "Sketchup glTF Exporter v1.2.6 by Centaur"
  },
  "scene": 0,
  "scenes": [
    {
      "nodes": [
        0
      ]
    }
  ],
  "samplers": [
    {
    }
  ],
  "nodes": [
    {
      "name": "root",
      "children": [
        1
      ]
    },
    {
      "children": [
        2
      ]
    },
    {
      "name": "水禽",
      "mesh": 0
    }
  ],
  "materials": [
    {
      "pbrMetallicRoughness": {
        "baseColorTexture": {
          "index": 0
        },
        "metallicFactor": 0.1,
        "roughnessFactor": 0.9
      },
      "name": "新拋光的混凝土",
      "doubleSided": true
    },
    {
      "pbrMetallicRoughness": {
        "baseColorFactor": [
          0.2176,
          0.2176,
          0.2176,
          1.0
        ],
        "metallicFactor": 0.1,
        "roughnessFactor": 0.9
      },
      "name": "default material",
      "doubleSided": true
    }
  ],
  "images": [
    {
      "bufferView": 0,
      "mimeType": "image/jpeg"
    }
  ],
  "textures": [
    {
      "source": 0,
      "sampler": 0
    }
  ],
  "meshes": [
    {
      "primitives": [
        {
          "attributes": {
            "POSITION": 2,
            "NORMAL": 3,
            "TEXCOORD_0": 4
          },
          "indices": 5,
          "mode": 4,
          "material": 0
        },
        {
          "attributes": {
            "POSITION": 0,
            "NORMAL": 1
          },
          "indices": 6,
          "mode": 4,
          "material": 1
        }
      ]
    }
  ],
  "accessors": [
    {
      "bufferView": 1,
      "componentType": 5126,
      "count": 266,
      "type": "VEC3",
      "min": [
        -13.275736279126477,
        6.401893981198286e-14,
        -9.885979567267931
      ],
      "max": [
        13.275736279126505,
        3.872045422144684,
        9.885979567268002
      ]
    },
    {
      "bufferView": 2,
      "componentType": 5126,
      "count": 266,
      "type": "VEC3",
      "min": [
        -0.9292403681676239,
        -1.0,
        -0.9292403681676239
      ],
      "max": [
        0.9292403681676239,
        1.0,
        0.9292403681676239
      ]
    },
    {
      "bufferView": 3,
      "componentType": 5126,
      "count": 56,
      "type": "VEC3",
      "min": [
        -13.275736279126477,
        6.401893981198286e-14,
        -9.854090324018282
      ],
      "max": [
        13.263056780011219,
        3.8720454221446703,
        9.885979567268002
      ]
    },
    {
      "bufferView": 4,
      "componentType": 5126,
      "count": 56,
      "type": "VEC3",
      "min": [
        -0.9292403681676239,
        -5.876910026010123e-16,
        -0.9292403681676239
      ],
      "max": [
        0.9292403681676239,
        1.0,
        0.36947576127223675
      ]
    },
    {
      "bufferView": 5,
      "componentType": 5126,
      "count": 56,
      "type": "VEC2",
      "min": [
        -2.2577437669607323,
        -2.1223099642773713
      ],
      "max": [
        2.261175520933338,
        1.0000000000000007
      ]
    },
    {
      "bufferView": 7,
      "componentType": 5121,
      "count": 138,
      "type": "SCALAR"
    },
    {
      "bufferView": 6,
      "componentType": 5123,
      "count": 468,
      "type": "SCALAR"
    }
  ],
  "bufferViews": [
    {
      "buffer": 0,
      "byteLength": 14777
    },
    {
      "buffer": 0,
      "byteOffset": 14784,
      "byteLength": 3192,
      "target": 34962,
      "byteStride": 12
    },
    {
      "buffer": 0,
      "byteOffset": 17976,
      "byteLength": 3192,
      "target": 34962,
      "byteStride": 12
    },
    {
      "buffer": 0,
      "byteOffset": 21168,
      "byteLength": 672,
      "target": 34962,
      "byteStride": 12
    },
    {
      "buffer": 0,
      "byteOffset": 21840,
      "byteLength": 672,
      "target": 34962,
      "byteStride": 12
    },
    {
      "buffer": 0,
      "byteOffset": 22512,
      "byteLength": 448,
      "target": 34962,
      "byteStride": 8
    },
    {
      "buffer": 0,
      "byteOffset": 22960,
      "byteLength": 936,
      "target": 34963
    },
    {
      "buffer": 0,
      "byteOffset": 23896,
      "byteLength": 138,
      "target": 34963
    }
  ],
  "buffers": [
    {
      "uri": "data:application/octet-stream;base64,",
      "byteLength": 24034
    }
  ]
}