{
  "asset": {
    "version": "2.0",
    "generator": "Sketchup glTF Exporter v1.2.6 by Centaur"
  },
  "scene": 0,
  "scenes": [
    {
      "nodes": [
        0
      ]
    }
  ],
  "samplers": [
    {
    }
  ],
  "nodes": [
    {
      "name": "root",
      "children": [
        1
      ]
    },
    {
      "children": [
        2
      ]
    },
    {
      "name": "馬#1",
      "children": [
        3,
        4
      ],
      "mesh": 2
    },
    {
      "mesh": 0
    },
    {
      "mesh": 1
    }
  ],
  "materials": [
    {
      "pbrMetallicRoughness": {
        "baseColorFactor": [
          0.2176,
          0.2176,
          0.2176,
          1.0
        ],
        "metallicFactor": 0.1,
        "roughnessFactor": 0.9
      },
      "name": "default material",
      "doubleSided": true
    },
    {
      "pbrMetallicRoughness": {
        "baseColorTexture": {
          "index": 0
        },
        "metallicFactor": 0.1,
        "roughnessFactor": 0.9
      },
      "name": "有紋路的金屬鋼"
    },
    {
      "pbrMetallicRoughness": {
        "baseColorTexture": {
          "index": 1
        },
        "metallicFactor": 0.1,
        "roughnessFactor": 0.9
      },
      "name": "質感良好的白色金屬鋼"
    }
  ],
  "images": [
    {
      "bufferView": 0,
      "mimeType": "image/jpeg"
    },
    {
      "bufferView": 1,
      "mimeType": "image/jpeg"
    }
  ],
  "textures": [
    {
      "source": 0,
      "sampler": 0
    },
    {
      "source": 1,
      "sampler": 0
    }
  ],
  "meshes": [
    {
      "primitives": [
        {
          "attributes": {
            "POSITION": 2,
            "NORMAL": 3,
            "TEXCOORD_0": 4
          },
          "indices": 5,
          "mode": 4,
          "material": 1
        }
      ]
    },
    {
      "primitives": [
        {
          "attributes": {
            "POSITION": 2,
            "NORMAL": 3,
            "TEXCOORD_0": 4
          },
          "indices": 6,
          "mode": 4,
          "material": 2
        }
      ]
    },
    {
      "primitives": [
        {
          "attributes": {
            "POSITION": 0,
            "NORMAL": 1
          },
          "indices": 7,
          "mode": 4,
          "material": 0
        },
        {
          "attributes": {
            "POSITION": 2,
            "NORMAL": 3,
            "TEXCOORD_0": 4
          },
          "indices": 8,
          "mode": 4,
          "material": 1
        }
      ]
    }
  ],
  "accessors": [
    {
      "bufferView": 2,
      "componentType": 5126,
      "count": 86,
      "type": "VEC3",
      "min": [
        -9.174980238910752,
        6.102395318814777e-14,
        -8.284769217503188
      ],
      "max": [
        10.147824057592754,
        3.835000000000073,
        7.931341510726412
      ]
    },
    {
      "bufferView": 3,
      "componentType": 5126,
      "count": 86,
      "type": "VEC3",
      "min": [
        -0.3694757612716564,
        -1.0,
        -0.9292403681678547
      ],
      "max": [
        0.9292403681678547,
        9.536948118788634e-16,
        0.9292403681678547
      ]
    },
    {
      "bufferView": 4,
      "componentType": 5126,
      "count": 231,
      "type": "VEC3",
      "min": [
        -9.174980238910752,
        6.096235833141443e-14,
        -8.340190581693932
      ],
      "max": [
        10.20324542178351,
        5.119000000000073,
        7.931341510726412
      ]
    },
    {
      "bufferView": 5,
      "componentType": 5126,
      "count": 231,
      "type": "VEC3",
      "min": [
        -0.9292403681678547,
        -1.0,
        -0.9292403681678547
      ],
      "max": [
        0.9292403681678547,
        0.9735848189738263,
        0.9292403681678547
      ]
    },
    {
      "bufferView": 6,
      "componentType": 5126,
      "count": 231,
      "type": "VEC2",
      "min": [
        -1321.78496398867,
        -1134.5153078541512
      ],
      "max": [
        1321.78496398867,
        1242.257395123441
      ]
    },
    {
      "bufferView": 8,
      "componentType": 5121,
      "count": 84,
      "type": "SCALAR"
    },
    {
      "bufferView": 8,
      "componentType": 5121,
      "count": 240,
      "type": "SCALAR",
      "byteOffset": 84
    },
    {
      "bufferView": 7,
      "componentType": 5121,
      "count": 192,
      "type": "SCALAR"
    },
    {
      "bufferView": 8,
      "componentType": 5121,
      "count": 36,
      "type": "SCALAR",
      "byteOffset": 324
    }
  ],
  "bufferViews": [
    {
      "buffer": 0,
      "byteLength": 7763
    },
    {
      "buffer": 0,
      "byteOffset": 7763,
      "byteLength": 9341
    },
    {
      "buffer": 0,
      "byteOffset": 17112,
      "byteLength": 1032,
      "target": 34962,
      "byteStride": 12
    },
    {
      "buffer": 0,
      "byteOffset": 18144,
      "byteLength": 1032,
      "target": 34962,
      "byteStride": 12
    },
    {
      "buffer": 0,
      "byteOffset": 19176,
      "byteLength": 2772,
      "target": 34962,
      "byteStride": 12
    },
    {
      "buffer": 0,
      "byteOffset": 21948,
      "byteLength": 2772,
      "target": 34962,
      "byteStride": 12
    },
    {
      "buffer": 0,
      "byteOffset": 24720,
      "byteLength": 1848,
      "target": 34962,
      "byteStride": 8
    },
    {
      "buffer": 0,
      "byteOffset": 26568,
      "byteLength": 192,
      "target": 34963
    },
    {
      "buffer": 0,
      "byteOffset": 26760,
      "byteLength": 360,
      "target": 34963
    }
  ],
  "buffers": [
    {
      "uri": "data:application/octet-stream;base64,",
      "byteLength": 27120
    }
  ]
}